<?xml version="1.0" standalone="no"?>
<!DOCTYPE svg PUBLIC "-//W3C//DTD SVG 20010904//EN"
 "http://www.w3.org/TR/2001/REC-SVG-20010904/DTD/svg10.dtd">
<svg version="1.0" xmlns="http://www.w3.org/2000/svg"
 width="265.000000pt" height="265.000000pt" viewBox="0 0 265.000000 265.000000"
 preserveAspectRatio="xMidYMid meet">
<metadata>
Created by potrace 1.11, written by Peter Selinger 2001-2013
</metadata>
<g transform="translate(0.000000,265.000000) scale(0.100000,-0.100000)"
fill="#000000" stroke="none">
<path d="M1545 2611 c-16 -4 -55 -19 -85 -32 l-55 -24 113 -7 c89 -5 122 -11
159 -30 68 -33 65 -49 -4 -25 -74 25 -234 34 -311 17 -141 -31 -247 -113 -311
-241 -22 -44 -45 -107 -52 -141 -11 -53 -16 -63 -46 -80 -37 -22 -63 -64 -63
-100 1 -37 36 -105 64 -123 14 -10 47 -19 73 -20 43 -3 48 -6 65 -41 24 -49
50 -77 123 -130 l59 -44 -157 0 -156 0 -23 30 c-53 72 -183 132 -318 145 -36
4 -91 16 -122 26 -32 10 -72 19 -90 19 -56 0 -139 -28 -192 -63 -40 -27 -65
-36 -116 -41 -35 -3 -68 -10 -74 -16 -15 -15 9 -57 44 -75 l31 -16 -21 -26
c-11 -14 -20 -32 -20 -39 0 -19 46 -47 65 -40 22 8 19 2 -25 -56 -75 -99 -84
-135 -88 -370 l-4 -208 61 0 c34 0 61 -2 61 -5 0 -3 -9 -34 -21 -68 -34 -101
-13 -198 69 -305 23 -30 24 -36 13 -71 -36 -122 27 -235 145 -261 46 -11 137
5 179 30 17 9 47 20 68 23 20 3 51 15 67 27 l30 22 28 -30 c45 -48 89 -66 162
-66 47 0 76 6 105 21 23 12 59 25 80 29 22 3 56 14 75 24 27 13 44 15 74 8 40
-8 110 4 121 22 3 6 23 10 43 10 38 0 114 30 126 49 4 6 20 8 35 5 38 -8 90
10 151 52 28 19 62 34 78 34 39 0 139 35 182 64 65 43 113 100 148 175 31 68
34 81 30 143 l-5 68 178 0 179 0 0 85 c0 79 1 85 20 85 31 0 95 36 118 65 25
32 45 123 36 161 -13 53 -43 101 -84 135 -35 29 -42 42 -49 88 -9 58 -29 82
-61 74 -32 -9 -55 -42 -55 -83 l0 -38 -48 44 c-42 40 -77 60 -178 102 -42 17
-43 62 -2 119 71 100 80 210 25 326 -23 51 -27 67 -16 67 18 0 54 -36 54 -55
0 -19 24 -20 39 -1 18 22 25 109 12 149 -15 45 -59 83 -114 98 -76 21 -74 19
-54 31 10 5 29 7 42 4 27 -7 35 12 35 86 0 51 -23 78 -67 78 -31 0 -113 -29
-145 -51 -37 -27 -45 -24 -52 19 -9 59 -48 107 -113 138 -48 24 -72 29 -147
31 -50 1 -104 -2 -121 -6z m-186 -463 c-43 -80 -41 -85 39 -85 72 -1 161 -26
211 -62 42 -30 54 -27 100 25 50 57 55 35 7 -28 l-34 -45 35 -12 c45 -17 107
-72 123 -111 7 -17 16 -30 20 -30 8 0 53 49 83 90 15 21 15 19 -2 -15 -10 -22
-42 -62 -70 -88 -45 -43 -48 -48 -31 -57 10 -5 26 -10 34 -10 8 0 31 -14 51
-31 26 -23 36 -27 40 -17 9 23 86 10 118 -20 53 -50 28 -101 -65 -131 -45 -15
-93 -3 -137 34 l-28 24 -54 -21 c-41 -15 -85 -22 -179 -25 -254 -10 -227 -13
-268 33 -20 23 -62 58 -92 78 -97 64 -137 110 -162 186 -16 49 -31 58 -36 22
-3 -22 -7 -23 -39 -17 -52 10 -71 25 -89 72 -14 35 -14 48 -5 72 23 54 71 59
123 14 19 -17 50 -11 46 9 -2 10 20 13 93 12 l96 0 17 56 c14 46 66 130 81
130 2 0 -10 -24 -26 -52z m-839 -393 c16 -8 46 -15 67 -15 99 -1 250 -60 309
-121 l28 -29 -132 0 c-113 0 -131 2 -126 15 8 20 -13 45 -37 45 -11 0 -29 11
-41 25 -27 31 -40 32 -36 3 2 -13 17 -32 35 -43 39 -24 40 -32 7 -47 -23 -11
-33 -8 -78 16 -44 24 -56 27 -74 17 -12 -6 -22 -15 -22 -20 0 -18 -82 -100
-110 -110 -49 -17 -50 11 -1 64 49 53 46 83 -3 33 -18 -18 -43 -48 -55 -65
-14 -21 -31 -33 -45 -33 -37 0 -37 10 -2 54 34 43 51 76 38 76 -4 0 -28 -20
-52 -45 -27 -27 -53 -45 -67 -45 -31 0 -29 11 12 60 19 23 35 46 35 51 0 5
-18 6 -40 3 -26 -4 -45 -2 -55 6 -26 22 -16 30 37 30 38 0 59 6 82 24 75 56
146 78 239 71 32 -3 71 -12 87 -20z m1504 -19 c-6 -16 -24 -23 -24 -8 0 10 22
33 27 28 2 -2 1 -11 -3 -20z m460 -228 c3 -13 6 -36 6 -52 0 -21 13 -41 51
-78 57 -55 79 -99 79 -157 0 -86 -58 -161 -124 -161 -38 0 -29 20 22 48 67 37
51 57 -21 27 -58 -24 -127 -18 -127 11 0 9 11 14 31 14 33 0 69 15 69 29 0 5
-29 6 -65 3 -46 -3 -69 -1 -81 9 -14 12 -14 14 2 26 10 7 38 13 63 13 31 0 54
7 71 20 24 20 25 21 6 35 -13 10 -42 15 -83 15 -50 0 -63 3 -63 16 0 25 66 46
123 39 35 -5 48 -4 43 4 -4 6 -14 11 -21 11 -34 0 -60 111 -33 138 19 19 45
14 52 -10z m-299 -62 c28 -12 65 -35 83 -51 27 -23 32 -32 27 -55 -5 -22 -1
-32 21 -49 15 -12 25 -22 23 -24 -2 -1 -13 -7 -24 -13 -29 -16 -31 -58 -5 -77
35 -24 50 -65 50 -133 l0 -65 -1115 2 -1115 2 0 136 c0 121 3 141 24 186 29
64 77 112 141 141 l50 24 895 0 895 0 50 -24z m-1238 -497 c100 -38 154 -176
132 -338 -6 -41 -17 -87 -25 -102 -10 -21 -12 -39 -4 -78 11 -59 -1 -148 -26
-185 -23 -36 -38 -33 -19 4 19 37 22 130 5 170 -16 38 -33 39 -23 3 5 -16 8
-51 7 -79 -2 -125 -107 -194 -214 -139 -72 36 -83 72 -53 186 16 65 16 66 -5
105 -78 139 -87 206 -39 310 57 124 163 181 264 143z m-501 -34 c89 -52 128
-216 90 -375 -15 -61 -15 -72 -3 -97 36 -69 28 -154 -20 -209 -17 -20 -22 -23
-17 -9 17 46 16 156 -1 201 -16 42 -16 46 5 110 19 55 22 82 18 167 -6 154
-49 220 -142 221 -57 1 -57 -18 0 -25 55 -6 87 -37 106 -102 19 -66 14 -192
-11 -264 l-21 -62 21 -66 c23 -68 23 -68 -12 -195 -7 -25 -21 -30 -85 -30 -77
0 -119 26 -153 94 -25 50 -24 74 3 161 5 14 -5 35 -33 73 -42 56 -71 132 -71
188 0 85 68 201 134 230 53 23 143 18 192 -11z m680 -33 c6 -4 16 -17 22 -28
10 -19 9 -23 -14 -28 -15 -4 -27 -6 -28 -4 -1 2 -10 15 -19 30 -9 15 -17 30
-17 33 0 8 43 6 56 -3z m-532 -21 c20 -22 14 -41 -13 -41 -16 0 -51 38 -51 55
0 13 49 3 64 -14z m66 -11 c0 -5 -2 -10 -4 -10 -3 0 -8 5 -11 10 -3 6 -1 10 4
10 6 0 11 -4 11 -10z m520 -330 c-11 -21 -40 -40 -61 -40 -14 0 50 59 64 60 4
0 3 -9 -3 -20z m-560 -40 c-8 -5 -19 -10 -25 -10 -5 0 -3 5 5 10 8 5 20 10 25
10 6 0 3 -5 -5 -10z m573 -140 c-6 -23 -49 -60 -70 -60 -27 0 -27 32 1 57 35
30 76 32 69 3z m-543 -45 c-19 -23 -49 -20 -43 4 5 21 32 32 47 20 5 -5 4 -15
-4 -24z"/>
<path d="M1391 2011 c-15 -28 -14 -61 3 -61 19 0 35 22 38 50 4 31 -27 39 -41
11z"/>
<path d="M1640 1920 c-23 -23 -27 -70 -6 -70 18 0 33 19 41 51 9 35 -9 45 -35
19z"/>
<path d="M1452 1908 c-7 -7 -12 -21 -12 -33 0 -29 19 -45 52 -45 33 0 38 17 6
22 -15 2 -23 10 -23 23 0 14 6 19 18 17 10 -2 17 3 17 13 0 18 -40 21 -58 3z"/>
<path d="M1360 1811 c0 -10 9 -29 19 -43 13 -16 17 -29 10 -39 -15 -23 -10
-65 9 -82 33 -30 81 -19 134 31 24 22 28 23 34 9 10 -28 26 -19 20 11 -4 15
-2 42 4 61 12 43 7 48 -18 23 -48 -48 -158 -33 -184 23 -13 30 -28 33 -28 6z"/>
<path d="M412 1428 c-17 -17 -17 -379 0 -396 17 -17 42 -15 61 6 12 13 17 37
17 86 l0 67 38 -3 37 -3 3 -70 c2 -38 8 -75 14 -82 15 -18 42 -16 61 5 15 16
17 45 17 191 0 100 -4 180 -10 192 -12 21 -50 25 -68 7 -7 -7 -12 -40 -12 -80
l0 -68 -40 0 -40 0 0 61 c0 33 -5 69 -10 80 -12 21 -50 25 -68 7z"/>
<path d="M805 1430 c-11 -17 -115 -354 -115 -371 0 -49 68 -50 89 -1 14 30 18
32 66 32 48 0 52 -2 66 -32 11 -26 20 -33 43 -33 56 0 55 18 -10 222 l-59 188
-37 3 c-20 2 -39 -2 -43 -8z m59 -227 c6 -20 4 -23 -18 -23 -30 0 -29 -2 -15
40 12 34 19 30 33 -17z"/>
<path d="M1052 1428 c-8 -8 -12 -66 -12 -194 0 -153 3 -185 16 -198 18 -19 28
-20 55 -6 16 9 19 22 19 75 0 36 3 65 8 65 4 0 24 -27 46 -60 21 -33 50 -70
64 -80 22 -18 28 -19 46 -6 33 22 31 44 -14 108 l-42 59 22 21 c68 63 57 173
-21 214 -35 17 -170 19 -187 2z m156 -95 c18 -35 -5 -63 -50 -63 -26 0 -28 3
-28 40 0 39 1 40 35 40 23 0 37 -6 43 -17z"/>
<path d="M1370 1421 c-6 -12 -10 -93 -10 -195 0 -145 3 -177 16 -190 18 -19
45 -21 62 -4 17 17 17 379 0 396 -18 18 -56 14 -68 -7z"/>
<path d="M1530 1421 c-6 -11 -10 -91 -10 -188 0 -213 0 -213 106 -213 41 0 89
6 107 14 66 27 93 108 59 174 -13 25 -17 44 -11 53 14 22 11 87 -6 119 -23 45
-62 60 -154 60 -69 0 -82 -3 -91 -19z m165 -106 c0 -28 -3 -30 -42 -33 l-43
-3 0 36 0 36 43 -3 c39 -3 42 -5 42 -33z m9 -141 c20 -20 20 -29 0 -49 -11
-10 -29 -15 -53 -13 -29 2 -37 8 -39 26 -2 13 -1 30 2 38 7 19 70 18 90 -2z"/>
<path d="M1919 1425 c-50 -27 -63 -61 -67 -172 -5 -116 5 -157 49 -199 26 -25
38 -29 84 -29 46 0 58 4 84 29 44 42 54 83 49 199 -4 112 -18 146 -69 173 -35
18 -96 18 -130 -1z m101 -94 c17 -32 13 -187 -6 -205 -43 -44 -76 4 -73 106 3
95 12 118 43 118 15 0 30 -8 36 -19z"/>
<path d="M890 911 c0 -5 14 -14 31 -21 35 -15 71 -60 88 -109 17 -53 13 -171
-8 -240 -25 -80 -8 -89 26 -14 23 49 28 72 28 148 0 112 -23 169 -86 214 -40
30 -79 41 -79 22z"/>
<path d="M260 460 c0 -24 92 -39 148 -24 38 11 24 22 -25 21 -27 -1 -65 2 -85
6 -25 5 -38 4 -38 -3z"/>
</g>
</svg>
