<?xml version="1.0" encoding="UTF-8" standalone="no"?>
<svg
   xmlns:dc="http://purl.org/dc/elements/1.1/"
   xmlns:cc="http://creativecommons.org/ns#"
   xmlns:rdf="http://www.w3.org/1999/02/22-rdf-syntax-ns#"
   xmlns:svg="http://www.w3.org/2000/svg"
   xmlns="http://www.w3.org/2000/svg"
   xmlns:sodipodi="http://sodipodi.sourceforge.net/DTD/sodipodi-0.dtd"
   xmlns:inkscape="http://www.inkscape.org/namespaces/inkscape"
   version="1.1"
   id="Layer_1"
   x="0px"
   y="0px"
   width="761"
   height="207"
   viewBox="0 0 760.99997 207"
   enable-background="new 0 0 595.275 841.89"
   xml:space="preserve">
<path
   inkscape:connector-curvature="0"
   style="fill:#ffffff"
   clip-path="none"
   d="m 695.07557,0.00127 -3.33125,0.0816 -3.29594,0.23406 -3.25312,0.38563 -3.21032,0.53375 -3.11312,0.67406 0.0119,0 -0.0506,0.0116 -3.10125,0.82594 -3.04282,0.97406 -2.98062,1.11032 -2.91406,1.25062 -2.83625,1.38688 -2.75844,1.51562 -1.83906,1.13 0.004,0 -0.84156,0.51813 -2.59094,1.7725 -2.49719,1.89343 -2.4,2.01438 -2.29875,2.135 -2.19343,2.24406 -2.08813,2.35719 -1.97156,2.46219 -1.85063,2.5675 -1.72968,2.665 -1.60126,2.76218 -1.46874,2.85188 -1.33626,2.94156 -1.19624,3.02719 -1.05594,3.10125 -0.89969,3.18281 -0.58375,2.51688 -0.008,0 -0.16781,0.72875 -0.6,3.31937 -0.44,3.37781 -0.28437,3.43626 -0.11688,3.41687 0,10.33594 -0.004,0 0,59.26625 -0.0428,-0.77938 -0.13624,-1.95562 -0.18719,-1.91313 -0.22594,-1.87 -0.27656,-1.83875 -0.32344,-1.80406 -0.37406,-1.76469 -0.42844,-1.73 -0.47937,-1.69875 -0.53376,-1.6675 -0.58437,-1.63219 -0.64281,-1.5975 -0.705,-1.55843 -0.74813,-1.52719 -0.8025,-1.48438 -0.86125,-1.44531 -0.89594,-1.40281 -0.94281,-1.36344 -0.98969,-1.32469 -1.02843,-1.28968 -1.05969,-1.25063 -1.09875,-1.21937 -1.13375,-1.18813 -0.71688,-0.72093 0.71688,-1.17657 1.94031,-3.79843 1.64407,-3.93126 1.3675,-4.04 1.08312,-4.13 0.80625,-4.19968 0.24563,-1.96375 -135.29282,0 0,82.03437 0.008,0 0,16.40625 0,1.305 0.0309,1.54282 0.11313,1.64031 0.19094,1.61687 0.265,1.58563 0.34656,1.55844 0.42094,1.52718 0.51031,1.48844 0.58062,1.44531 0.66219,1.4025 0.71688,1.29344 118.16593,0 1.87781,-1.60906 2.15844,-2.06875 2.03375,-2.17782 1.8975,-2.27906 1.76875,-2.37281 1.63625,-2.46219 1.5,-2.54406 0.4675,-0.89219 0.004,0 0.89625,-1.73 1.235,-2.68812 1.10657,-2.75063 0.97374,-2.81281 0.84563,-2.86375 0.71687,-2.91406 0.12844,-0.64688 -0.004,0 0.46344,-2.31031 0.46375,-3 0.34688,-3.03875 0.22593,-3.07406 0.0816,-2.62188 0.0587,1.23875 0.41657,4.27032 0.64687,4.12187 0.86094,3.97 0.12094,0.44406 0.009,0 0.94187,3.37407 1.25438,3.66624 1.44562,3.50625 1.61656,3.34282 1.40282,2.51687 0.004,0 0.37031,0.67 1.92438,3.01156 2.05343,2.84407 2.17,2.68062 2.27531,2.51282 2.36094,2.34937 2.44282,2.18969 0.18312,0.14781 86.53031,0 0.49875,-0.405 2.46219,-2.22469 2.38063,-2.38437 2.28687,-2.54813 2.17781,-2.71937 2.04938,-2.88688 1.91687,-3.05437 0.0934,-0.18313 1.6675,-3.04281 1.58969,-3.38969 1.41406,-3.54906 1.22344,-3.70906 0.71687,-2.71563 0.30375,-1.14937 0.80282,-4.01657 0.58437,-4.16093 0.35844,-4.30531 0.11687,-4.32844 -0.29625,-64.07375 -58.5025,0 0,63.85187 -0.0156,0.90782 -0.0428,0.75968 -0.0663,0.70907 -0.0819,0.65062 -0.105,0.59594 -0.11687,0.54562 -0.1325,0.49469 -0.14032,0.44406 -0.14406,0.3975 -0.15188,0.35438 -0.15593,0.31562 -0.15594,0.27282 -0.15594,0.24531 -0.15562,0.21843 -0.15188,0.19063 -0.16,0.17156 -0.16343,0.16375 -0.1675,0.14407 -0.18313,0.14406 -0.20281,0.13656 -0.21813,0.13219 -0.2375,0.12875 -0.26906,0.12469 -0.30375,0.12062 -0.335,0.11688 -0.37031,0.10906 -0.40907,0.0975 -0.45562,0.0856 -0.495,0.0703 -0.53375,0.0544 -0.57656,0.0312 -0.79094,0.0156 -0.73219,0.008 -0.49875,-0.0119 -0.46375,-0.035 -0.42844,-0.0506 -0.3975,-0.0622 -0.35437,-0.0781 -0.31969,-0.0856 -0.28437,-0.0934 -0.25719,-0.0975 -0.23375,-0.10125 -0.20625,-0.10906 -0.18719,-0.10907 -0.17125,-0.11687 -0.16,-0.12094 -0.14781,-0.12844 -0.15594,-0.14812 -0.14812,-0.16344 -0.14813,-0.17937 -0.14781,-0.20657 -0.15594,-0.24156 -0.15593,-0.28031 -0.15969,-0.31563 -0.15594,-0.36625 -0.15187,-0.41312 -0.15188,-0.4675 -0.1325,-0.52188 -0.12844,-0.57656 -0.10906,-0.63531 -0.0897,-0.69719 -0.0703,-0.75187 -0.0428,-0.81844 -0.0194,-0.97 0,-63.855624 0.008,0 0,-10.008746 0.0194,-0.83 0.0506,-0.61938 0.0741,-0.54156 0.0897,-0.47906 0.10124,-0.41688 0.11313,-0.3625 0.12063,-0.31562 0.12468,-0.28032 0.1325,-0.24937 0.13625,-0.22219 0.14438,-0.20656 0.14781,-0.19094 0.16375,-0.18281 0.17531,-0.17937 0.19469,-0.17157 0.21437,-0.1675 0.22219,-0.16343 0.24531,-0.16376 0.265,-0.15187 0.28063,-0.14813 0.30375,-0.13624 0.31156,-0.1325 0.3275,-0.12094 0.33875,-0.10906 0.33907,-0.0934 0.34281,-0.0819 0.335,-0.07 0.33125,-0.0547 0.31937,-0.0388 0.30407,-0.0275 0.27656,-0.0153 0.25312,-0.008 0.35844,0.008 0.3975,0.0194 0.405,0.0312 0.41688,0.0466 0.41312,0.0584 0.42062,0.0741 0.41688,0.0897 0.40531,0.10125 0.38969,0.11312 0.38188,0.12469 0.36218,0.14 0.34688,0.14031 0.31156,0.14813 0.29594,0.15969 0.26125,0.16374 0.24156,0.15969 0.21406,0.16375 0.19875,0.1675 0.17938,0.1675 0.15968,0.17125 0.14407,0.17531 0.13656,0.19094 0.13219,0.21032 0.12468,0.23 0.12469,0.265 0.11688,0.30781 0.11312,0.35843 0.10531,0.41282 0.0894,0.48312 0.0819,0.55719 0.0469,0.635 0.0234,0.85719 0,10.004996 58.50625,0 -0.0547,-10.250626 -0.0428,-3.29187 -0.22188,-3.45969 -0.3975,-3.40531 -0.55718,-3.33875 -0.19,-0.86094 0.007,0 -0.53375,-2.41187 -0.88031,-3.2025 -1.0325,-3.12063 -1.18844,-3.04656 -1.32844,-2.95719 -1.465,-2.87125 -1.605,-2.77 -1.73,-2.67656 -1.86219,-2.57157 -1.97906,-2.46624 -2.09625,-2.36094 -2.205,-2.24782 -2.31031,-2.13124 -2.40781,-2.01407 -2.505,-1.89375 -2.59875,-1.76875 -0.82594,-0.50625 0.008,0 -1.85843,-1.13781 -2.76219,-1.51563 -2.83625,-1.37906 -2.91063,-1.25062 -2.97625,-1.11032 -3.03906,-0.97 -3.09344,-0.83 -0.0584,-0.0116 -3.08937,-0.67031 -3.19875,-0.5375 -3.23375,-0.38563 -3.27656,-0.23406 -3.3075,-0.0816 z m -491.58313,0.68156 -1.75718,0.0819 -1.41032,0.10906 -1.4025,0.16375 -1.395,0.21031 -1.38687,0.26125 -1.37531,0.3075 -0.35063,0.0937 -1.00906,0.26875 -1.35188,0.41281 -1.3325,0.4675 -1.31281,0.51844 -1.29344,0.5725 -1.27406,0.63125 -1.24688,0.67781 -1.21531,0.73657 -1.19219,0.78312 -1.16124,0.84125 -1.12594,0.89625 -1.08688,0.93875 -0.48687,0.46 -0.56125,0.52969 -1.00906,1.04031 -0.97,1.08313 -0.92344,1.12969 -0.87656,1.165 -0.8375,1.21562 -0.78719,1.25438 -0.73625,1.28187 -0.68969,1.32469 -0.64656,1.35562 -0.59219,1.38719 -0.54562,1.41813 -0.49876,1.44531 -0.42062,1.38312 -6.89094,23.99938 -0.001,0 -7.06343,24.61125 96.96781,0 -7.33219,-24.61125 -0.001,0 -7.19875,-24.14344 -0.46344,-1.43781 -0.53,-1.46094 -0.5725,-1.42969 -0.61968,-1.395 -0.66626,-1.35969 -0.71281,-1.32468 -0.75593,-1.28156 -0.8025,-1.25063 -0.84938,-1.20781 -0.89219,-1.165 -0.935,-1.12188 -0.97781,-1.07937 -1.01688,-1.02844 -0.35062,-0.32719 -0.70531,-0.65468 -1.09094,-0.93126 -1.12594,-0.88031 -1.15687,-0.83 -1.18844,-0.77125 -1.21562,-0.72094 -1.23876,-0.67 -1.2625,-0.61156 -1.28156,-0.55718 -1.2975,-0.50657 -1.31281,-0.45187 -1.32875,-0.40125 -0.83375,-0.21813 -0.5025,-0.1325 -1.34813,-0.29625 -1.35562,-0.25312 -1.36375,-0.2025 -1.3675,-0.15219 -1.37125,-0.11281 -1.72594,-0.0781 z m 103.84406,0.0119 -1.23874,0.0194 -1.33626,0.0781 -1.33656,0.12844 -1.33218,0.17906 -1.33657,0.23781 -1.32469,0.29219 -1.02906,0.27656 60.89906,0 -2.38031,-0.42062 -3.50656,-0.44438 -3.5725,-0.26469 -3.5025,-0.0819 -39.00313,0 z m -8.93406,1.21156 -0.015,0 0,0.004 0.015,-0.004 z m -0.015,0.004 -0.27281,0.0737 -1.30875,0.41313 -1.29375,0.47937 -1.27781,0.54531 -1.25844,0.60782 -1.23094,0.68187 -1.21187,0.74781 -1.17657,0.81438 -1.13374,0.88812 -1.1025,0.95844 -1.04813,1.02469 -0.89219,0.97031 0.008,0 -0.10126,0.11688 -0.93906,1.14531 -0.88437,1.21156 -0.80625,1.2625 -0.74438,1.31281 -0.67375,1.35969 -0.60406,1.40657 -0.52594,1.44156 -0.45593,1.4725 -0.38563,1.50781 -0.31156,1.53125 -0.24157,1.55844 -0.17156,1.58562 -0.0972,1.605 -0.0353,1.51563 0,20.98406 0.004,0 0,24.61094 -0.004,0 0,82.03437 0,5.08438 -1.51531,-5.08438 -0.004,0 -24.4475,-82.03437 -96.97157,0 -23.06062,80.33593 0,-80.33593 -132.21094,0 0,82.03437 0,16.40625 0,1.99469 0.0387,1.61687 0.11688,1.70657 0.20281,1.68281 0.28031,1.64812 0.3625,1.61688 0.44782,1.57781 0.53,1.53906 0.60781,1.49219 0.68969,1.44531 0.0466,0.0856 52.29219,0 0.18312,-0.35843 0.63531,-1.42594 0.56094,-1.46875 0.48313,-1.51156 0.40906,-1.55063 0.33125,-1.58562 0.25687,-1.61688 0.18313,-1.64406 0.10906,-1.67156 0.0312,-1.58938 0,-1.98312 0,-16.40625 -0.004,0 0,-25.21875 14.95656,0 0,25.21875 0.004,0 0,16.40625 0,1.99093 0.035,1.60125 0.11312,1.69063 0.19094,1.65969 0.26875,1.6325 0.34656,1.60125 0.42469,1.55843 0.50656,1.52344 0.58438,1.48438 0.65843,1.43375 0.12094,0.22968 51.95719,0 0.12468,-0.23375 0.55313,-1.20781 0.0975,0.24938 0.54906,1.19218 52.265,0 0.47531,-0.91531 0.83782,-1.78062 0.8025,-1.87782 0.77531,-1.97937 0.75187,-2.08813 0.70907,-2.15062 1.78062,-5.61406 0.25313,-0.80657 28.99812,0 0.24156,0.80657 1.87,6.17906 0.635,1.98687 0.69344,1.96375 0.73656,1.87375 0.77907,1.79219 0.82593,1.71031 0.47938,0.9 54.15062,0 0.2375,-0.4675 0.68969,-1.61687 0.59219,-1.67531 0.0934,0.31968 0.54937,1.45688 0.62344,1.41844 0.28437,0.56468 51.93782,0 0.0816,-0.13625 0.67406,-1.43375 0.59625,-1.48062 0.52594,-1.53094 0.43625,-1.57406 0.3625,-1.60906 0.28031,-1.64813 0.195,-1.67906 0.12063,-1.70656 0.035,-1.61657 0,-1.99093 0,-16.40625 0.004,0 0,-0.68563 0.47125,0.68563 11.275,16.40625 10.4025,15.13593 0.935,1.27 54.6025,0 1.19219,-2.22062 1.12594,-2.71156 0.81062,-2.67282 0.28438,1.30125 0.4325,1.55469 0.51031,1.51563 0.58031,1.46875 0.6625,1.42187 0.18688,0.34281 52.74031,0 0.12093,-0.21812 0.68563,-1.42969 0.60781,-1.48062 0.52969,-1.52344 0.44813,-1.56594 0.37,-1.60125 0.28062,-1.63656 0.20656,-1.6675 0.11688,-1.69063 0.035,-1.59375 0,-1.99843 0,-16.40219 0.004,0 0,-82.038435 -0.004,0 0,-24.610945 0.008,0 0,-21.70469 -0.0428,-1.49218 -0.12844,-1.61688 -0.22219,-1.59344 -0.30781,-1.57031 -0.39344,-1.53094 -0.47531,-1.49625 -0.56125,-1.44906 -0.62719,-1.40281 -0.71281,-1.35188 -0.77531,-1.29343 -0.83375,-1.23126 -0.89219,-1.1725 -0.94687,-1.11031 -0.94657,-1.00125 -0.004,0 -0.0388,-0.0469 -1.0325,-0.98188 -1.0675,-0.91937 -1.1025,-0.86094 -1.12625,-0.795 -1.15313,-0.73219 -1.1725,-0.67812 -1.18843,-0.62313 -1.20781,-0.565 -1.21938,-0.51031 -1.235,-0.46 -1.24281,-0.40906 -1.24688,-0.35844 -1.08312,-0.26469 -0.17125,-0.0431 -1.26625,-0.26094 -1.26625,-0.21031 -1.26625,-0.1675 -1.27407,-0.11688 -1.28937,-0.0703 -1.32094,-0.0231 -1.33219,0.035 -1.32874,0.0897 -1.33219,0.14782 -1.32469,0.20656 -1.32094,0.265 -0.6,0.14812 0.004,0 -0.71312,0.17532 -1.30906,0.38937 -1.29719,0.44813 -1.27813,0.51031 -1.26218,0.58062 -1.24656,0.64657 -1.21969,0.71312 -1.19594,0.78312 -1.16094,0.84938 -1.12219,0.91938 -1.07906,0.98968 -1.04031,1.05188 -0.12875,0.14812 0.004,0 -0.86094,0.97782 -0.9275,1.18812 -0.86874,1.24688 -0.8025,1.305 -0.7325,1.36374 -0.66219,1.41032 -0.58844,1.45718 -0.51031,1.50376 -0.4325,1.53906 -0.35438,1.57406 -0.27281,1.605 -0.19875,1.63625 -0.11281,1.65969 -0.0391,1.55468 0,20.99157 0,0.004 0,24.610945 0,82.034375 0,9.10125 -0.98968,-2.56375 -1.54282,-2.9725 -1.71031,-2.58313 -0.72469,-0.98187 0.004,0 -26.55938,-36.2875 0.15219,-0.10125 1.8075,-1.27375 1.85844,-1.41438 1.89344,-1.55844 1.90531,-1.70656 1.91281,-1.86594 1.90125,-2.02593 1.86625,-2.1975 1.835,-2.36875 1.76875,-2.54032 1.69094,-2.71937 1.59343,-2.902495 1.48844,-3.08157 1.35969,-3.265 1.21937,-3.44406 1.05969,-3.62719 0.9,-3.80625 0.71688,-3.98562 0.2375,-1.8625 0.004,0 0.28844,-2.3025 0.32312,-4.34407 0.10907,-4.542815 -0.0816,-3.04656 -0.24156,-3.04656 -0.40531,-3.02344 -0.54938,-3.00375 -0.31062,-1.30125 0.003,0 -0.39344,-1.65594 -0.84937,-2.92593 -0.98938,-2.87907 -1.13,-2.84031 -1.27,-2.78156 -1.395,-2.72344 -1.535,-2.66094 -1.65968,-2.59468 -1.78813,-2.52094 -1.90906,-2.4425 -2.03,-2.36125 -2.15438,-2.275 -2.2675,-2.18188 -2.38031,-2.08437 -2.49344,-1.97532 -2.59875,-1.87 -2.71156,-1.74937 -0.85344,-0.49469 -1.95562,-1.13781 -2.91438,-1.5 -3.01156,-1.3675 -3.105,-1.22719 -3.19094,-1.08312 -3.27656,-0.93094 -3.36219,-0.77156 -1.05594,-0.18688 -60.91406,0 z M 29.92119,1.37654 l -1.26625,0.0231 -1.25844,0.0662 -1.26218,0.11312 -1.27,0.15594 -1.06375,0.17531 -0.2025,0.0309 -1.27032,0.25719 -1.26593,0.31187 -1.26625,0.36219 -1.26625,0.42063 -1.25063,0.47531 -1.24281,0.53781 -1.23906,0.6 -1.21938,0.67 -1.19219,0.7325 -1.17281,0.8025 -1.14906,0.87656 -1.11063,0.95094 -1.0675,1.01656 -0.15187,0.16 -0.87281,0.93094 -0.97,1.16125 -0.91157,1.23094 -0.84562,1.28969 -0.77531,1.35562 -0.70125,1.41438 -0.62313,1.465 -0.54156,1.50781 -0.46,1.55031 -0.37375,1.58969 -0.29219,1.62062 -0.20656,1.65219 -0.12094,1.67531 -0.0387,1.57 0,20.99938 0,0.004 0,24.60719 132.21094,0 0,-24.61125 -0.004,0 0,-20.64875 -0.035,-1.55469 -0.11687,-1.65969 -0.195,-1.63218 -0.27282,-1.60126 -0.35437,-1.57031 -0.4325,-1.535 -0.51438,-1.49593 -0.58812,-1.45344 -0.6625,-1.40625 -0.73625,-1.35188 -0.79875,-1.29343 -0.86875,-1.23907 -0.92344,-1.17281 -0.97781,-1.11031 -0.28438,-0.28813 -0.74031,-0.75218 -1.07125,-0.97376 -1.10656,-0.90406 -1.1375,-0.83375 -1.165,-0.77125 -1.19594,-0.70125 -1.20781,-0.63531 -1.2275,-0.57656 -1.23875,-0.51032 -1.25063,-0.44812 -1.25844,-0.39344 -1.26218,-0.335 -1.2625,-0.28062 -0.50625,-0.0894 -0.76781,-0.13656 -1.26594,-0.17531 -1.26625,-0.12469 -1.26625,-0.0741 -1.25844,-0.0231 -1.26625,0.0231 -1.25844,0.0662 L 99.2038,1.57875 97.93756,1.73844 96.91287,1.91 96.6713,1.9487 l -1.26625,0.265 -1.26218,0.31563 -1.26219,0.37 -1.25844,0.4325 -1.24687,0.49094 -1.23125,0.55312 -1.22313,0.61562 -1.20406,0.68969 -1.17656,0.75188 -1.14938,0.82593 -1.12187,0.9 -1.08313,0.97 -0.97781,0.98594 -0.0547,0.0506 -0.98187,1.10625 -0.92719,1.17656 -0.865,1.23531 -0.79844,1.29344 -0.72875,1.35187 -0.65437,1.4025 -0.58063,1.45313 -0.49875,1.48844 -0.42062,1.51937 -0.34281,1.56219 -0.26501,1.58594 -0.19093,1.61656 -0.10907,1.64031 -0.035,1.53906 0,20.99157 0,0.004 0,22.96687 -14.61407,0 0,-22.96687 0,-0.004 0,-21.34219 -0.0387,-1.51188 -0.11687,-1.62843 -0.20282,-1.605 -0.28437,-1.57407 -0.36625,-1.54281 -0.44781,-1.50781 -0.52219,-1.46875 -0.60406,-1.42219 -0.67781,-1.37125 -0.74407,-1.32093 -0.81031,-1.26219 -0.87656,-1.20375 -0.9275,-1.13782 -0.98563,-1.07906 -0.035,-0.035 L 50.51133,9.14086 49.44383,8.19805 48.3454,7.32524 47.21165,6.51492 46.05446,5.77086 44.87009,5.08898 43.67008,4.47336 42.45852,3.92024 41.22727,3.42148 39.98821,2.98117 38.74165,2.59555 37.48696,2.26836 36.23258,1.99555 35.76102,1.90995 34.96633,1.76964 33.70415,1.59808 32.44165,1.47339 31.17946,1.39929 29.92102,1.37619 z m 485.63,1.37531 -1.16093,0.0231 -1.2625,0.0703 -1.26219,0.12469 -1.2625,0.17125 -1.26219,0.22594 -1.25844,0.27281 -1.25062,0.33125 -1.24656,0.38188 -1.23907,0.44 -1.22343,0.49874 -1.21938,0.55344 -1.2,0.61938 -1.18031,0.67781 -1.16125,0.74813 -1.12969,0.80656 -1.1025,0.8725 -0.60719,0.54156 -0.008,0 -0.45187,0.40125 -1.02875,1.00531 -0.98156,1.07906 -0.93125,1.13782 -0.87281,1.20375 -0.81407,1.26219 -0.74437,1.32093 -0.67375,1.37125 -0.60407,1.42594 -0.52593,1.465 -0.44813,1.51156 -0.36218,1.53906 -0.28438,1.57407 -0.20281,1.605 -0.12063,1.62843 -0.035,1.51188 0,19.97875 0.008,0 0,24.60719 135.285,0 0.28812,-2.29094 0.26125,-4.29344 -0.0119,-4.31687 -0.28032,-4.32844 -0.55344,-4.31656 -0.83374,-4.29344 -0.2025,-0.77156 -0.005,0 -0.90313,-3.47531 -1.39094,-4.19594 -1.67906,-4.11406 -1.9675,-4.01688 -2.2675,-3.9 -2.56344,-3.75969 -2.8675,-3.59187 -3.1675,-3.40125 -3.47531,-3.18313 -3.77531,-2.9375 -4.06719,-2.665 -3.26875,-1.7725 0,-0.004 -0.0153,0 -1.07969,-0.58812 -4.62437,-2.04157 -4.89344,-1.7025 -5.14281,-1.33656 -5.38438,-0.96219 -5.61,-0.56875 -5.60656,-0.15969 -41.08719,0 z m -178.88937,56.39469 9.59218,0 1.1375,0.0584 0.67782,0.11281 0.53781,0.15219 0.43625,0.17906 0.37406,0.20657 0.33906,0.24531 0.33094,0.3 0.3275,0.36625 0.32313,0.44406 0.31187,0.53781 0.28813,0.61938 0.25343,0.6975 0.21407,0.77125 0.15593,0.82218 0.0934,0.85719 0.0275,0.88031 -0.0353,0.89219 -0.105,0.865 -0.15969,0.83375 -0.22218,0.77906 -0.26094,0.71313 -0.3,0.635 -0.32344,0.54937 -0.33906,0.46376 -0.34282,0.38156 -0.34281,0.30781 -0.34687,0.24937 -0.37,0.20657 -0.42844,0.17906 -0.51438,0.14437 -0.64281,0.105 -1.09875,0.05844 -9.58812,0 0,-14.61375 z m 208.22625,0 6.21406,0 1.73375,0.0741 1.30125,0.17531 1.12219,0.25687 0.95844,0.32344 0.81812,0.36625 0.70125,0.40906 0.60375,0.44031 0.51844,0.4675 0.45562,0.5025 0.39344,0.54157 0.33906,0.57687 0.28438,0.6075 0.23,0.63906 0.16344,0.66626 0.10156,0.67781 0.0388,0.68562 -0.0272,0.68188 -0.0856,0.66625 -0.14813,0.64687 -0.20656,0.61157 -0.26094,0.58062 -0.31187,0.54531 -0.36594,0.50657 -0.42875,0.47531 -0.49469,0.45187 -0.58438,0.42469 -0.6975,0.40125 -0.82187,0.37 -0.98594,0.3275 -1.16469,0.26094 -1.36374,0.17906 -1.80782,0.07406 -6.22187,0 0,-14.61375 z m 0.008,73.4125 16.37094,0 1.05968,0.07 0.68969,0.12094 0.54157,0.15969 0.42874,0.18312 0.36594,0.2025 0.32344,0.24156 0.30781,0.28438 0.30407,0.35062 0.3,0.42469 0.29218,0.51438 0.2725,0.6 0.23782,0.67781 0.19468,0.75187 0.14032,0.80657 0.0856,0.84937 0.0197,0.86875 -0.0469,0.87656 -0.10531,0.86094 -0.17125,0.83 -0.22594,0.78313 -0.26125,0.71281 -0.3,0.63531 -0.31937,0.55313 -0.32719,0.45593 -0.32719,0.37 -0.31187,0.29219 -0.30375,0.22219 -0.30407,0.17531 -0.33093,0.14406 -0.39375,0.11688 -0.49469,0.0819 -0.935,0.0544 -16.77625,0 0,-14.27094 z m -541.57281,58.035 0.71312,1.29719 0.8375,1.32875 0.9,1.26219 0.96625,1.19625 0.97,1.0675 0.0506,0.0584 1.07156,1.04781 1.11031,0.97812 1.14938,0.90375 1.18031,0.82969 1.20781,0.76375 0.95469,0.53 -0.004,0 0.27656,0.15188 1.24312,0.62343 1.26219,0.55313 1.26219,0.49094 1.27031,0.42843 1.27781,0.37407 1.28188,0.31562 1.27375,0.26094 1.27406,0.20656 1.27406,0.16375 1.27,0.11281 1.2625,0.0662 1.25844,0.0194 1.235,-0.0194 1.24281,-0.07 1.25438,-0.11687 1.25469,-0.16375 1.25437,-0.21813 1.25844,-0.26875 1.26219,-0.3275 1.25468,-0.38562 1.25063,-0.44406 1.24281,-0.51032 1.235,-0.57281 1.21938,-0.64281 0.0428,-0.0272 0.004,0 1.14938,-0.68188 1.17656,-0.78312 1.14531,-0.85719 1.1025,-0.92344 1.0675,-0.99718 0.82594,-0.86875 0.19094,-0.20282 0.97031,-1.1375 0.90781,-1.20406 0.84532,-1.26219 0.77906,-1.32468 0.52594,-1.02063 -52.29219,0 z m 73.68156,0 0.6075,1.14531 0.80656,1.32469 0.86875,1.26219 0.93125,1.2 0.98969,1.13 0.0894,0.0897 0.95062,0.97 1.07937,0.98562 1.12188,0.91563 1.15719,0.84156 1.18437,0.77531 1.07532,0.62344 0.12468,0.0737 1.22344,0.63125 1.23875,0.56875 1.24688,0.49875 1.25062,0.44031 1.26219,0.38188 1.2625,0.31937 1.25843,0.26875 1.25844,0.21438 1.25438,0.16375 1.25062,0.11687 1.24656,0.07 1.23907,0.0194 1.235,-0.0194 1.24687,-0.07 1.25438,-0.11687 1.25468,-0.16375 1.25813,-0.21438 1.25469,-0.26875 1.26625,-0.31937 1.25843,-0.38188 1.25063,-0.43625 1.24656,-0.50281 1.23907,-0.56875 1.22343,-0.63125 0.12844,-0.0737 1.07906,-0.62344 1.18438,-0.77531 1.15719,-0.84562 1.11812,-0.91157 1.07938,-0.98562 0.95062,-0.97 0.0856,-0.0897 0.99344,-1.13375 0.93125,-1.19625 0.86875,-1.26219 0.8025,-1.32469 0.61188,-1.14531 -51.95719,0 z m 53.28156,0 0.12094,0.265 0.74406,1.39844 0.81031,1.3325 0.87282,1.26219 0.92718,1.19218 0.61188,0.70157 -0.004,0 0.37,0.42437 1.02094,1.04813 1.05968,0.97781 1.09875,0.90781 1.12188,0.83781 1.15343,0.7675 0.25313,0.14813 0.91937,0.54531 1.19219,0.63125 1.21188,0.56469 1.22719,0.495 1.23874,0.4325 1.25469,0.36625 1.27,0.29594 1.28188,0.23 1.78437,0.22187 1.58938,-0.035 0.68187,-0.004 0.73625,0.0116 0.79094,0.0156 0.84938,0.0194 0.90781,0.0197 0.97406,0.0153 1.04031,-0.004 1.10625,-0.0312 1.18063,-0.07 1.25437,-0.12469 1.31688,-0.18718 1.37937,-0.27657 1.43375,-0.37406 1.46875,-0.48687 1.4725,-0.61157 1.47282,-0.74031 1.44156,-0.86875 0.0741,-0.0506 1.32062,-0.93125 1.32844,-1.1025 1.25844,-1.2 1.18438,-1.28969 0.47531,-0.58812 0.004,0 0.635,-0.78313 1.04031,-1.45343 0.97782,-1.52719 0.92718,-1.60906 0.40125,-0.77907 -52.265,0 z m 93.90563,0 0.39344,0.73625 0.9275,1.55844 0.98562,1.48062 1.04406,1.41032 0.8025,0.96625 0.004,0 0.3,0.36218 1.16469,1.24688 1.21969,1.15687 1.27781,1.0675 1.32063,0.97032 0.48718,0.30781 0.8725,0.55687 1.38313,0.76375 1.395,0.65844 1.39844,0.55719 1.38312,0.45969 1.35969,0.37 1.32875,0.29218 1.28937,0.21813 1.24688,0.16 1.19594,0.105 1.14531,0.0662 1.09875,0.0312 1.04812,0.004 0.99344,-0.0153 0.93906,-0.0234 0.89219,-0.0353 0.83375,-0.035 0.74782,-0.0309 1.17281,-0.0353 1.55437,-0.15188 1.54282,-0.24156 1.52343,-0.335 1.49219,-0.42469 1.47281,-0.51031 1.44157,-0.59625 1.40624,-0.67781 1.37532,-0.76375 0.57656,-0.36594 0.004,0 0.75563,-0.47937 1.2975,-0.93125 1.25062,-1.00907 1.2,-1.09468 1.14531,-1.17657 0.37032,-0.42062 -0.008,0 0.72063,-0.83375 1.02094,-1.3325 0.94281,-1.41031 0.86875,-1.48438 0.54937,-1.09094 -54.15468,0 z m 57.22468,0 0.40907,0.8025 0.75969,1.32469 0.83374,1.26625 0.9,1.20781 0.95844,1.14531 0.38188,0.40532 0.008,0 0.63094,0.67375 1.05969,1.00906 1.11062,0.94281 1.14531,0.86906 1.18844,0.79844 1.21156,0.72875 0.1675,0.0897 0.0156,0 1.05968,0.56875 1.25063,0.58813 1.27,0.52593 1.28187,0.46 1.28969,0.39719 1.28938,0.33906 1.30125,0.28032 1.30531,0.22218 1.30125,0.17532 1.30125,0.11687 1.305,0.0741 1.2975,0.0194 1.21937,-0.0194 1.22719,-0.07 1.23531,-0.11687 1.23876,-0.1675 1.24281,-0.21438 1.23906,-0.27281 1.25063,-0.31938 1.24281,-0.38187 1.235,-0.43625 1.235,-0.49875 1.22719,-0.56094 1.21937,-0.6275 0.13656,-0.0816 0.004,0 1.05594,-0.61187 1.18031,-0.76344 1.15719,-0.83375 1.11438,-0.90406 1.08312,-0.97407 1.02062,-1.02437 -0.004,0 0.0231,-0.0234 1.00531,-1.12219 0.935,-1.19219 0.88438,-1.25062 0.82219,-1.32063 0.67406,-1.24281 -51.93782,0 z m 78.32938,0 1.23875,1.68313 2.47406,2.84781 1.68313,1.62094 -0.004,0 0.95062,0.92312 2.77781,2.22469 2.90281,1.90125 0.12063,0.0625 0.008,0 2.89094,1.50375 3.10125,1.21937 3.14781,0.86875 3.15969,0.52594 3.14406,0.18313 3.08969,-0.14 3.00375,-0.44438 2.9025,-0.72844 2.78563,-0.98968 2.64937,-1.235 1.30125,-0.76344 -0.008,0 1.19593,-0.6975 2.34157,-1.67156 2.17406,-1.87 0.84937,-0.8725 1.14532,-1.18063 1.8,-2.2325 1.59718,-2.4 0.17938,-0.33875 -54.6025,0 z m 60.38812,0 0.55313,1.02844 0.80656,1.31687 0.86875,1.25844 0.93125,1.19219 0.98938,1.12969 0.22219,0.22625 -0.004,0 0.81407,0.83375 1.08312,0.98562 1.11813,0.91938 1.16094,0.84937 1.18843,0.77906 1.21563,0.70907 0.07,0.0353 0.0119,0 1.15688,0.60375 1.24687,0.58062 1.26219,0.51406 1.27031,0.45188 1.27782,0.38969 1.28187,0.335 1.28937,0.28062 1.28563,0.22219 1.28969,0.17531 1.28562,0.12063 1.28188,0.0741 1.27781,0.0194 1.27781,-0.0194 1.28594,-0.0741 1.28938,-0.12063 1.28562,-0.17156 1.28969,-0.22219 1.28969,-0.27656 1.28156,-0.33094 1.28187,-0.38594 1.27407,-0.44781 1.26218,-0.50656 1.25469,-0.56875 1.235,-0.63531 0.0156,-0.007 -0.004,0 1.20781,-0.68969 1.2,-0.7675 1.16876,-0.84156 1.13781,-0.90782 1.09843,-0.97781 0.93126,-0.92719 0.12468,-0.12093 1.00532,-1.12219 0.95437,-1.18813 0.89219,-1.25062 0.83375,-1.31688 0.635,-1.15312 -52.74407,0 z m 70.13594,0 0.0312,0.0584 0.81031,1.29344 0.88032,1.22719 0.93906,1.165 1.00125,1.09468 1.05187,1.02844 0.33126,0.28469 -0.004,0 0.75969,0.66219 1.12594,0.87656 1.16469,0.80656 1.19218,0.7325 1.20407,0.66219 1.21937,0.59625 1.235,0.52969 0.65469,0.24562 0.0116,0 0.59219,0.22188 1.24688,0.40906 1.24656,0.35062 1.24687,0.29625 1.25438,0.24532 1.25062,0.195 1.23907,0.14781 1.24281,0.10531 1.23875,0.0622 1.13781,0.0197 53.09469,0 3.51437,-0.11312 3.49844,-0.265 3.41687,-0.41688 3.32719,-0.56469 3.1325,-0.69343 0.004,0 0.10906,-0.0234 3.15188,-0.865 3.06219,-1.01282 2.965,-1.15718 2.85187,-1.30125 1.4375,-0.75188 1.31313,-0.68594 2.64937,-1.57781 2.52438,-1.70656 2.40781,-1.835 0.40531,-0.34656 -118.17,0 z m 161.55188,0 2.32218,1.88156 2.55563,1.87813 2.59469,1.72969 1.09875,0.6625 -0.004,0 1.535,0.92312 2.64156,1.44563 2.65312,1.31281 2.66094,1.18062 0.635,0.24938 -0.0156,0 2.01031,0.79844 2.63,0.93125 2.59844,0.81031 2.57156,0.6975 2.52469,0.58437 2.48562,0.47532 2.435,0.37 2.38032,0.26125 2.32218,0.15968 2.25969,0.0544 2.35313,-0.0544 2.40374,-0.15968 2.46219,-0.26907 2.51313,-0.37375 2.55968,-0.47937 2.60626,-0.59594 2.63781,-0.70531 2.6725,-0.82594 2.68437,-0.94281 1.86219,-0.73625 0.004,0 0.84531,-0.33531 2.70782,-1.19594 2.70375,-1.3325 2.68843,-1.46875 1.29344,-0.77906 0.004,0 1.37531,-0.83 2.63376,-1.75719 2.59093,-1.90906 2.03375,-1.65563 -86.53062,0 z"
   id="path5" /><path
   inkscape:connector-curvature="0"
   clip-path="none"
   d="m 695.07557,5.81408 -3.05844,0.0741 -3.02344,0.21406 -2.98031,0.35062 -2.93375,0.49094 -2.88687,0.6275 -2.83626,0.75562 -2.78187,0.88844 -2.71156,1.01282 -2.65719,1.13781 -2.31812,1.13375 0.008,0 -0.26094,0.12844 -2.51313,1.37906 -2.435,1.5 -2.35312,1.60906 -2.27125,1.72594 -2.18563,1.83125 -0.0353,0.0272 80.41375,0 -0.0428,-0.0391 -2.19344,-1.82719 -2.27531,-1.72593 -2.365,-1.60907 -2.43875,-1.49593 -2.51687,-1.37938 -0.26094,-0.12437 0.008,0 -2.33375,-1.13375 -2.65312,-1.13781 -2.71563,-1.01282 -2.77406,-0.88844 -2.82438,-0.75562 -2.87937,-0.6275 -2.92188,-0.49094 -2.96094,-0.35062 -3.00374,-0.21406 -3.02719,-0.0741 z m -491.58313,0.68563 -1.38718,0.0622 -1.21532,0.0975 -1.20406,0.14032 -1.19219,0.17937 -1.17656,0.21813 -1.165,0.26468 -1.14906,0.30407 -1.13375,0.34656 -1.11813,0.39375 -1.09875,0.4325 -1.07531,0.47906 -1.05594,0.51813 -1.0325,0.565 -1.00906,0.60781 -0.98563,0.65062 -0.95843,0.69344 -0.0584,0.0469 0.004,0 -0.86875,0.68937 -0.9,0.77938 -0.865,0.81812 -0.83781,0.85719 -0.8025,0.9 -0.7675,0.93875 -0.7325,0.97406 -0.70125,1.01281 -0.65844,1.05219 -0.105,0.17907 50.41032,0 -0.21438,-0.36219 -0.67781,-1.05219 -0.70907,-1.01656 -0.74812,-0.97406 -0.77906,-0.935 -0.81032,-0.89626 -0.84562,-0.85312 -0.8725,-0.81438 -0.9,-0.7675 -0.68188,-0.52968 -0.25312,-0.195 -0.95469,-0.68563 -0.98187,-0.63906 -1.00125,-0.59594 -1.02844,-0.55312 -1.04813,-0.50657 -1.06343,-0.46374 -1.08313,-0.42469 -1.09875,-0.37781 -1.11406,-0.335 -1.13,-0.29626 -1.1375,-0.25312 -1.15344,-0.21438 -1.16469,-0.17124 -1.17281,-0.1325 -1.18062,-0.0938 -1.35563,-0.0622 z m 103.88719,0.004 -1.0675,0.0197 -1.11844,0.0622 -1.10625,0.10532 -1.1025,0.14812 -1.08718,0.19469 -1.07907,0.24156 -1.0675,0.28437 -1.05187,0.335 -1.03656,0.38594 -1.02063,0.43219 -0.9975,0.48313 -0.97406,0.53374 -0.94657,0.58844 -0.91562,0.63906 -0.89219,0.68938 -0.85312,0.74406 -0.11313,0.10938 0.004,0 -0.70124,0.68562 -0.77532,0.84532 -0.72875,0.89218 -0.68562,0.94282 -0.635,0.98968 -0.58438,1.0325 -0.53,1.07532 -0.47906,1.11406 -0.23,0.62344 100.54437,0 -0.0391,-0.0313 -2.27125,-1.80374 -2.37656,-1.7025 -2.47,-1.5975 -2.56375,-1.48813 -2.66094,-1.37156 -0.45562,-0.20625 0.004,0 -2.29875,-1.04032 -2.83219,-1.12218 -2.91437,-0.98938 -3,-0.84937 -3.07376,-0.70531 -3.15187,-0.55719 -3.21813,-0.405 -3.28437,-0.24563 -3.28437,-0.0819 -38.87813,0 z m 138.09,0.3275 -1.08313,0.0272 -1.08312,0.0741 -1.07906,0.12062 -1.07532,0.1675 -1.0675,0.21438 -1.05968,0.26094 -1.05188,0.31187 -1.04031,0.36219 -1.02469,0.40906 -1.005,0.45969 -0.98968,0.51062 -0.96626,0.56469 -0.93906,0.61562 -0.91156,0.67032 -0.88438,0.72062 -0.19468,0.17938 -0.65063,0.59594 -0.81437,0.82593 -0.77125,0.88063 -0.72469,0.92718 -0.68188,0.97782 -0.63124,1.02875 -0.58032,1.07125 -0.52218,1.11812 -0.31157,0.77532 44.3675,0 -0.39719,-0.88032 -0.55343,-1.05594 -0.60375,-1.00906 -0.65438,-0.9625 -0.70156,-0.92312 -0.74,-0.87282 -0.78312,-0.82218 -0.81813,-0.77906 -0.84937,-0.73626 -0.20657,-0.15968 -0.004,0 -0.67406,-0.52625 -0.9,-0.635 -0.92719,-0.59594 -0.95062,-0.54937 -0.97031,-0.50657 -0.98563,-0.45969 -1.00125,-0.42062 -1.02094,-0.37812 -1.02844,-0.33876 -1.03624,-0.29624 -1.04407,-0.25719 -1.05219,-0.21407 -1.05562,-0.17937 -1.05594,-0.13625 -1.06344,-0.0975 -1.06374,-0.0622 -1.08313,-0.0156 z m -415.55219,0.35843 -1.06,0.0156 -1.05187,0.0584 -1.05188,0.0934 L 25.694,7.48954 24.64213,7.6608 23.594,7.87111 22.54994,8.1283 21.50963,8.42454 20.48119,8.76736 19.46432,9.15298 18.459,9.58954 l -0.98937,0.48282 -0.97406,0.53 -0.95063,0.58437 -0.92719,0.635 -0.88843,0.67813 0.004,0 -0.0119,0.0116 -0.8725,0.74031 -0.83375,0.79469 -0.79875,0.84938 -0.75593,0.90374 -0.705,0.95844 -0.65844,1.00532 -0.60781,1.05562 -0.54938,1.10656 -0.33125,0.77532 43.98594,0 -0.32344,-0.75969 -0.52969,-1.07531 -0.58437,-1.0325 -0.63125,-0.98563 -0.68188,-0.93906 -0.72468,-0.88438 -0.7675,-0.84156 -0.8025,-0.79063 -0.8375,-0.73656 -0.195,-0.15562 -0.004,0 -0.67,-0.53375 L 43.95055,11.32708 43.03086,10.7349 42.08805,10.19708 41.12961,9.7024 40.15555,9.25427 39.16211,8.85302 38.16086,8.49865 37.14805,8.18677 36.12711,7.91802 35.09867,7.69584 34.06617,7.51302 33.02992,7.36865 31.99367,7.2674 30.95336,7.209 29.91711,7.1896 z m 73.06969,0.004 -1.06,0.0156 -1.04781,0.0584 -1.04813,0.0934 -1.05187,0.1325 -1.04032,0.17531 -1.04031,0.21437 -1.02844,0.25719 -1.02468,0.3 -1.01688,0.35063 -0.99719,0.38937 -0.98593,0.44437 -0.97,0.49094 -0.94657,0.5375 -0.9275,0.59219 -0.9,0.64687 -0.75968,0.60782 0,0.003 -0.10907,0.0862 -0.8375,0.75594 -0.80281,0.8025 -0.75969,0.85719 -0.72062,0.90781 -0.67,0.96219 -0.62344,1.00906 -0.565,1.05188 -0.51812,1.10281 -0.265,0.66219 43.26125,0 -0.15969,-0.39344 -0.52187,-1.11032 -0.57688,-1.05968 -0.63094,-1.01688 -0.67812,-0.97031 -0.72063,-0.91531 -0.76375,-0.86906 -0.8025,-0.81407 -0.8375,-0.75969 -0.35844,-0.29218 -0.005,0 -0.50969,-0.41688 -0.89594,-0.65844 -0.92343,-0.60781 -0.94688,-0.55719 -0.96219,-0.50656 -0.98187,-0.45968 -0.99719,-0.40907 -1.00906,-0.36219 -1.01688,-0.31968 -1.02469,-0.26875 -1.0325,-0.23 -1.03624,-0.18688 -1.04032,-0.14031 -1.03625,-0.105 -1.04437,-0.0584 -1.03219,-0.0197 z m 412.63031,1.3675 -0.98968,0.0197 -1.04032,0.0622 -1.04,0.0975 -1.03656,0.14406 -1.03625,0.18313 -1.02844,0.22594 -1.02093,0.265 -1.01282,0.31156 -1.00531,0.35844 -0.99344,0.3975 -0.97406,0.44812 -0.95844,0.49469 -0.93875,0.54156 -0.60156,0.38563 -0.002,0 -0.31156,0.19874 -0.89219,0.63907 -0.87281,0.68937 -0.83375,0.74032 -0.80625,0.78687 -0.76375,0.84156 -0.72469,0.89219 -0.68188,0.93906 -0.635,0.98563 -0.58437,1.02843 -0.22594,0.46376 100.1625,0 -1.82343,-1.41813 -3.67,-2.40375 -3.935,-2.135 -4.19188,-1.85469 -1.12594,-0.38937 0.0116,0 -0.0116,-0.004 -3.31562,-1.14938 -4.69469,-1.22312 -4.94781,-0.88469 -5.18188,-0.52594 -5.31812,-0.15187 -40.94688,0 z M 7.60869,20.7052 7.449,21.08301 7.0165,22.2752 6.65432,23.51395 6.35025,24.78801 6.1165,26.10488 5.949,27.45301 l -0.10125,1.38687 -0.035,1.35969 0,39.72781 0.004,0 0,41.01719 -0.004,0 0,41.01719 0.004,0 0,16.40594 47.16907,0 0,-16.40594 -0.004,0 0,-25.21906 26.58625,0 0,25.21906 0,16.40594 46.83,0.004 0,-16.41 -0.004,0 0,-41.01719 0.004,0 0,-41.017192 -0.004,0 0,-39.380928 -0.0312,-1.35188 -0.0975,-1.37937 -0.15969,-1.34406 -0.22594,-1.30907 -0.28437,-1.27 -0.35063,-1.235 -0.40906,-1.19625 -0.30406,-0.75562 -43.26125,0 -0.19469,0.48312 -0.3975,1.18438 -0.33906,1.22312 -0.27657,1.2625 -0.21812,1.29719 -0.15594,1.3325 -0.0894,1.37125 -0.0312,1.34438 0,39.723738 0,9.98938 -26.23969,0 0,-9.98938 -0.004,0 0,-40.070618 -0.0312,-1.30125 -0.0975,-1.3325 -0.16344,-1.30125 -0.23,-1.27 -0.29219,-1.23125 -0.35437,-1.2 -0.41313,-1.15687 -0.15187,-0.35844 -43.98219,0 z m 118.78938,147.66656 -46.83,0 0,7.74531 0.0312,1.4025 0.0972,1.42594 0.16,1.38312 0.21813,1.34407 0.28437,1.30906 0.34657,1.26219 0.17531,0.53375 -0.004,0 0.23,0.68968 0.46344,1.18032 0.52218,1.13375 0.57657,1.08312 0.62718,1.04031 0.68188,0.98188 0.0194,0.0312 0.004,0 0.705,0.9075 0.7675,0.88062 0.81031,0.82219 0.84156,0.77125 0.87688,0.71313 0.9075,0.66218 0.58843,0.38563 0.006,0 0.33688,0.21812 0.95062,0.55344 0.97,0.5025 0.98969,0.45188 0.9975,0.40125 1.00906,0.35468 1.01688,0.30782 1.02843,0.26093 1.02844,0.21813 1.02875,0.17937 1.0325,0.1325 1.03219,0.0972 1.0325,0.0547 1.02469,0.0194 1.02843,-0.0194 1.02876,-0.0547 1.03624,-0.0972 1.0325,-0.1325 1.02844,-0.17937 1.02875,-0.21813 1.02844,-0.26093 1.01687,-0.30782 1.00907,-0.35468 0.99719,-0.40125 0.98968,-0.45188 0.96625,-0.49875 0.95438,-0.55719 0.33719,-0.21812 0.002,0 0.59219,-0.38563 0.90406,-0.66218 0.8725,-0.71313 0.84562,-0.7675 0.81032,-0.82594 0.77125,-0.88437 0.70125,-0.90375 -0.004,0 0.0234,-0.0312 0.67782,-0.98188 0.63125,-1.04031 0.57656,-1.08312 0.51813,-1.13375 0.4675,-1.18032 0.22593,-0.68968 0.004,0 0.17906,-0.53375 0.34281,-1.26219 0.28437,-1.30906 0.22219,-1.34407 0.15594,-1.38718 0.0972,-1.42188 0.0312,-1.40656 0,-7.74125 z M 228.65276,20.7052 l 0,0.004 -50.41032,0 -0.52218,0.90375 -0.58438,1.11844 -0.54531,1.15687 -0.51063,1.18437 -0.4675,1.21969 -0.42844,1.25063 -0.37781,1.23875 -11.81687,41.14969 0.003,0 -11.77687,41.01343 -11.7775,41.01719 -4.71031,16.40594 49.70156,0 0.25312,-0.8025 37.56938,0 0.24125,0.8025 51.29906,0 -0.12094,-0.37782 -4.77656,-16.02812 -0.004,0 -12.22188,-41.01719 -12.22562,-41.01719 -10e-4,0 -12.28281,-41.21593 -0.41313,-1.27813 -0.45969,-1.27375 -0.49874,-1.235 -0.53376,-1.2 -0.56874,-1.165 -0.60782,-1.12593 -0.42468,-0.72844 z m 56.95187,0 -0.19094,0.52968 -0.37,1.18844 -0.31156,1.22313 -0.25344,1.25843 -0.19875,1.28969 -0.14406,1.32469 -0.0819,1.35562 -0.035,1.3325 0,39.72 -0.004,0 0,41.01719 0.004,0 0,41.01719 0,16.40594 46.83,0 0,-16.40594 0.004,0 0,-13.59719 9.3425,13.59719 -0.004,0 11.27875,16.40594 59.6675,0 -0.63907,-1.65969 -1.24656,-2.41156 -1.47656,-2.21282 -7.4025,-10.12187 -23.55531,-32.18125 0.81031,-0.42844 1.43,-0.81437 1.51562,-0.92313 1.58157,-1.03656 1.64031,-1.15719 1.68688,-1.27781 1.70656,-1.41406 1.72968,-1.54282 0.24563,-0.24156 -0.004,0 1.48437,-1.44562 1.71438,-1.835 1.69875,-1.98313 1.65187,-2.13875 1.59719,-2.29875 1.53125,-2.46218 1.44531,-2.62969 1.35188,-2.80125 1.23906,-2.96875 1.11437,-3.14813 0.97376,-3.31937 0.82593,-3.5025 0.6625,-3.68563 0.48688,-3.865 0.21812,-2.93344 0.0119,0 0.0819,-1.11812 0.10125,-4.25062 -0.0741,-2.74688 -0.22219,-2.74281 -0.35844,-2.72719 -0.49843,-2.70375 -0.63531,-2.68437 -0.7675,-2.64938 -0.89594,-2.61406 -1.02469,-2.57532 -1.15719,-2.52843 -1.27,-2.47781 -1.39468,-2.42344 -1.51188,-2.365 -1.62844,-2.29844 -1.74531,-2.22844 -1.85063,-2.15468 -1.9675,-2.07657 -2.065,-1.99093 -2.135,-1.86594 -100.54437,0 z m 138.7175,0 -0.15594,0.38562 -0.40906,1.2 -0.34656,1.23875 -0.28844,1.27813 -0.22187,1.31281 -0.16376,1.34813 -0.0975,1.38312 -0.0312,1.35188 0,39.72374 0.004,0 0,41.01719 -0.004,0 0,41.01719 0.004,0 0,16.40594 47.85094,0.004 0.004,0 0,-16.41 0,-41.01719 -0.004,0 0,-41.017192 0.004,0 0,-40.421238 -0.035,-1.25844 -0.10531,-1.30125 -0.17531,-1.27 -0.24156,-1.23907 -0.31156,-1.21156 -0.37782,-1.17281 -0.4325,-1.13375 -0.0937,-0.21406 -44.37156,0 z m 46.14063,147.66656 -47.855,0 0,7.74531 0.0312,1.375 0.0934,1.40281 0.16,1.3675 0.22594,1.33219 0.28438,1.28969 0.34656,1.25844 0.21844,0.635 0.004,0 0.19094,0.57656 0.4675,1.16906 0.52594,1.12594 0.57656,1.08281 0.635,1.0325 0.68188,0.98563 0.12875,0.16781 0.59593,0.76344 0.77157,0.88437 0.81031,0.82594 0.85312,0.77531 0.88063,0.72094 0.91156,0.67 0.75969,0.5025 0.0134,0 0.16594,0.10906 0.96218,0.565 0.97782,0.51031 1.00124,0.46376 1.01313,0.41281 1.0325,0.36625 1.03625,0.31562 1.04406,0.27281 1.05594,0.23 1.05562,0.18282 1.06376,0.14437 1.06374,0.0972 1.05969,0.0625 1.06344,0.0194 1.05969,-0.0194 1.06375,-0.0584 1.06343,-0.10125 1.06376,-0.14437 1.05968,-0.18282 1.05969,-0.22625 1.05187,-0.26875 1.04813,-0.31937 1.03625,-0.35844 1.02469,-0.41312 1.00906,-0.45563 0.99344,-0.51062 0.97031,-0.55688 0.21219,-0.13656 0.01,0 0.7325,-0.47125 0.92718,-0.6625 0.89219,-0.72063 0.86875,-0.7675 0.82625,-0.82593 0.79063,-0.87657 0.65843,-0.81812 -0.004,0 0.0897,-0.11313 0.70125,-0.98187 0.65062,-1.0325 0.59594,-1.08281 0.54563,-1.13 0.48312,-1.17282 0.21813,-0.62718 -0.004,0 0.20656,-0.59219 0.36218,-1.25844 0.29626,-1.30125 0.2375,-1.33625 0.16374,-1.37531 0.0975,-1.41031 0.0313,-1.38688 0,-7.74531 z m 24.13968,-147.66656 -0.3,0.61156 -0.47531,1.11812 -0.41313,1.15719 -0.35437,1.2 -0.2925,1.23094 -0.22969,1.27031 -0.16375,1.30125 -0.0972,1.3325 -0.0312,1.30125 0,38.69906 0.0116,0 0,41.01719 -0.0156,0 0,41.01719 0.0119,0 0,16.40594 125.91125,0 0.41281,-0.9 1.00125,-2.48563 0.88844,-2.55187 0.76375,-2.61032 0.65437,-2.66093 0.54532,-2.71157 0.38968,-2.48562 -0.004,0 0.0428,-0.27281 0.31938,-2.80125 0.20656,-2.84032 0.0934,-2.87906 -0.0116,-2.82469 -0.0234,-1.95968 -0.0547,-1.93219 -0.0856,-1.87031 -0.1325,-1.82313 -0.1675,-1.76875 -0.21438,-1.71812 -0.24531,-1.67531 -0.29594,-1.62875 -0.33531,-1.58563 -0.37781,-1.54656 -0.42844,-1.50782 -0.4675,-1.46875 -0.51844,-1.42999 -0.56468,-1.39469 -0.60782,-1.36375 -0.65468,-1.32438 -0.705,-1.29375 -0.74032,-1.25844 -0.54937,-0.84906 0.0116,0 -0.24531,-0.37812 -0.83375,-1.19594 -0.86875,-1.17281 -0.91156,-1.14157 -0.95063,-1.11406 -0.98969,-1.10281 -1.02468,-1.075 -1.06376,-1.06375 -1.09468,-1.04813 -1.13375,-1.04 -0.82594,-0.72468 1.21563,-1.66375 1.99093,-3.25688 1.7375,-3.40906 1.48063,-3.53781 1.23094,-3.65438 0.98187,-3.74406 0.7325,-3.82594 0.48687,-3.88031 0.17938,-2.98813 -0.004,0 0.0547,-0.93906 -0.008,-3.95062 -0.25343,-3.96594 -0.51407,-3.95062 -0.75593,-3.93126 -1.01282,-3.88812 -1.27031,-3.82969 -1.535,-3.75187 -1.78813,-3.65438 -2.05312,-3.54156 -2.32594,-3.40531 -2.59094,-3.24531 -2.85968,-3.07 -3.13625,-2.87126 -1.57407,-1.22718 -100.17406,0 z m 160.23875,0 -2.05687,1.905 -1.995,2.04156 -1.89344,2.13875 -1.79219,2.24031 -1.68281,2.32969 -1.57406,2.42344 -1.45719,2.51281 -1.33625,2.595 -1.21938,2.68031 -1.08312,2.75438 -0.9625,2.8325 -0.82594,2.9025 -0.69344,2.97281 -0.54937,3.03875 -0.405,3.0975 -0.25719,3.15937 -0.10906,3.17532 0,4.42218 0.008,0 0,41.01719 0,29.54719 0.17531,4.0675 0.39344,3.94656 0.54156,3.45594 0.004,0 0.0506,0.335 0.78719,3.64281 0.97406,3.49063 1.14531,3.33906 1.31282,3.18687 1.16906,2.41157 107.26468,0 1.37938,-2.92969 1.28188,-3.22219 1.11031,-3.37781 0.93093,-3.52969 0.67407,-3.34656 -0.004,0 0.0662,-0.33125 0.5375,-3.82969 0.33125,-3.97781 0.10906,-4.07156 -0.1325,-28.80688 -0.19094,-41.01719 0.004,0 -0.0197,-4.38312 -0.0428,-3.11688 -0.20656,-3.1675 -0.35844,-3.11281 -0.51031,-3.05062 -0.65843,-2.98031 -0.79876,-2.91438 -0.93874,-2.84 -1.07157,-2.76625 -1.2075,-2.68844 -1.3325,-2.6025 -1.45719,-2.51656 -1.57406,-2.4275 -1.68687,-2.33344 -1.79594,-2.24031 -1.90125,-2.14281 -2.00281,-2.04157 -2.05688,-1.89718 -80.41,0 z m 39.56031,32.28625 0.54938,0.008 0.5725,0.0275 0.58844,0.0466 0.6,0.0662 0.60375,0.0859 0.61562,0.10906 0.61563,0.1325 0.60781,0.15188 0.60375,0.17531 0.59625,0.19875 0.58437,0.22187 0.56876,0.24563 0.55718,0.26468 0.53375,0.28844 0.51407,0.31156 0.49093,0.33126 0.4675,0.35468 0.44813,0.37782 0.41687,0.40531 0.40531,0.42843 0.37407,0.45188 0.35062,0.48719 0.32719,0.51812 0.30375,0.55719 0.28063,0.59594 0.24937,0.65062 0.22969,0.6975 0.19094,0.75188 0.15593,0.81812 0.12063,0.88063 0.0741,0.94656 0.0275,1.08313 0,4.26624 -0.004,0 0,41.01719 -0.004,0 0,28.70188 -0.0197,1.06343 -0.0544,0.97407 -0.0856,0.93125 -0.10938,0.88437 -0.14781,0.84156 -0.17531,0.79469 -0.19875,0.75188 -0.23,0.70906 -0.24531,0.66625 -0.26875,0.62719 -0.28844,0.58843 -0.30781,0.54938 -0.33125,0.51812 -0.34657,0.48313 -0.3625,0.44812 -0.38156,0.42063 -0.40531,0.3975 -0.42469,0.37 -0.38187,0.29625 0.008,0 -0.07,0.0506 -0.47156,0.32344 -0.49469,0.30375 -0.52219,0.27656 -0.55312,0.25719 -0.58063,0.2375 -0.61531,0.21062 -0.64312,0.18688 -0.68157,0.16375 -0.71312,0.1325 -0.74407,0.10906 -0.77937,0.0778 -0.81406,0.0469 -0.92344,0.0194 -0.86875,0.008 -0.74406,-0.0194 -0.72469,-0.0547 -0.68969,-0.0778 -0.66625,-0.10906 -0.63125,-0.13657 -0.6075,-0.16343 -0.57281,-0.18719 -0.55313,-0.21031 -0.52624,-0.23375 -0.49844,-0.25719 -0.47532,-0.28031 -0.45218,-0.30782 -0.42844,-0.3275 -0.0506,-0.0388 0.008,0 -0.37407,-0.31562 -0.3975,-0.38563 -0.37781,-0.41312 -0.36219,-0.44031 -0.35062,-0.48313 -0.33125,-0.51406 -0.31187,-0.55719 -0.29219,-0.59625 -0.27657,-0.63875 -0.25312,-0.68594 -0.23375,-0.73218 -0.21031,-0.77938 -0.18313,-0.82969 -0.14812,-0.87656 -0.12469,-0.93125 -0.0897,-0.97781 -0.0544,-1.0325 -0.0197,-1.12594 0,-28.70187 0,-41.017195 -0.004,0 0,-4.266245 0.0272,-1.05594 0.0741,-0.92719 0.11313,-0.86094 0.15187,-0.8025 0.18687,-0.74812 0.21813,-0.69344 0.24563,-0.64281 0.27281,-0.60406 0.29593,-0.56094 0.31938,-0.52594 0.34688,-0.49469 0.36624,-0.46 0.38563,-0.43625 0.40531,-0.40906 0.42844,-0.38562 0.44812,-0.3625 0.4675,-0.335 0.48688,-0.31563 0.50281,-0.29594 0.51813,-0.26875 0.53375,-0.24562 0.54156,-0.22594 0.54531,-0.19875 0.55719,-0.17906 0.55313,-0.15594 0.55343,-0.1325 0.54907,-0.11281 0.53781,-0.0859 0.52593,-0.0662 0.51438,-0.0466 0.48688,-0.0275 0.46374,-0.008 z m -363.54843,0.34281 15.55656,0 1.60125,0.0816 1.31688,0.21438 1.18437,0.33125 1.05969,0.44031 0.9625,0.53375 0.88031,0.63094 0.80656,0.72875 0.7325,0.82187 0.66219,0.91969 0.58844,1.00906 0.51031,1.09063 0.42469,1.165 0.335,1.22719 0.24562,1.27406 0.14406,1.30531 0.0469,1.32063 -0.0584,1.32468 -0.15594,1.30906 -0.17156,0.865 -0.008,0 -0.0816,0.40907 -0.34688,1.235 -0.43625,1.16875 -0.52218,1.09875 -0.59594,1.01687 -0.67406,0.92719 -0.73657,0.82969 -0.81031,0.7325 -0.88438,0.63125 -0.95843,0.5375 -1.05188,0.43656 -1.16093,0.33094 -1.28563,0.21062 -1.57031,0.08157 -15.55656,0 0,-9.64626 0.008,0 0,-16.59312 z m 208.22219,0 12.14781,0 2.11562,0.0894 1.835,0.24156 1.66344,0.38594 1.50781,0.5025 1.35969,0.61156 1.21563,0.70906 1.09093,0.795 0.96594,0.8725 0.85344,0.94688 0.74031,1.00906 0.63094,1.07125 0.52218,1.12219 0.40907,1.165 0.29593,1.19593 0.18313,1.21938 0.0741,1.23125 -0.0506,1.22718 -0.15969,1.21157 -0.22969,0.98593 0.008,0 -0.0466,0.2025 -0.38563,1.15313 -0.49874,1.11031 -0.60782,1.05594 -0.72094,0.9975 -0.8375,0.93094 -0.95062,0.865 -1.07906,0.78687 -1.21969,0.70531 -1.37125,0.61157 -1.535,0.50656 -1.7025,0.38563 -1.88594,0.24562 -2.18156,0.08938 -12.15562,0 0,-9.64626 0,-16.59312 z m -336.33469,47.20406 3.035,10.40625 -0.004,0 2.75438,9.44781 -11.72688,0 2.82469,-9.44781 0.004,0 3.11313,-10.40625 z m 336.33093,26.20438 22.37844,0 1.5625,0.10531 1.31688,0.22969 1.18031,0.34687 1.05187,0.44406 0.94688,0.54157 0.86094,0.62718 0.77937,0.72469 0.70907,0.81063 0.63874,0.90375 0.56876,0.99343 0.48718,1.07532 0.40125,1.14531 0.31157,1.21187 0.22593,1.25438 0.12469,1.28562 0.0275,1.30532 -0.0662,1.305 -0.16375,1.29375 -0.25719,1.26218 -0.34656,1.21938 -0.42469,1.15719 -0.51437,1.08687 -0.58438,1.00531 -0.65062,0.91157 -0.71281,0.81031 -0.77157,0.71687 -0.82593,0.60782 -0.89219,0.51437 -0.74813,0.32344 -0.21031,0.0894 -1.05594,0.31187 -1.16093,0.19875 -1.42969,0.0778 -22.75281,0 0,-0.67781 -0.004,0 0,-25.21906 z m -533.255,41.62906 0,7.74531 0.0312,1.41031 0.10125,1.43375 0.16375,1.39469 0.22969,1.35188 0.3,1.31687 0.35844,1.27 0.16375,0.48313 -0.004,0 0.25718,0.74812 0.48719,1.18438 0.54156,1.1375 0.6,1.09093 0.65438,1.04032 0.67,0.93906 0.004,0 0.0312,0.0466 0.75188,0.93125 0.79875,0.87656 0.83375,0.82219 0.86875,0.76344 0.90375,0.71312 0.93125,0.65438 0.52968,0.335 0.006,0 0.41875,0.265 0.97406,0.54531 0.9975,0.49875 1.01282,0.44437 1.02093,0.39719 1.03625,0.34688 1.04032,0.30375 1.05187,0.25718 1.05188,0.21813 1.05593,0.17156 1.05563,0.13625 1.05969,0.0934 1.05593,0.0547 1.05188,0.0194 1.02469,-0.0194 1.02843,-0.0547 1.0325,-0.0972 1.02844,-0.13656 1.02469,-0.17531 1.02469,-0.22188 1.02093,-0.26125 1.00907,-0.31156 1.00125,-0.35469 0.98937,-0.405 0.97813,-0.45594 0.96218,-0.50656 0.93907,-0.56093 0.28656,-0.19094 0.009,0 0.62344,-0.41688 0.89219,-0.67 0.85719,-0.71687 0.82968,-0.77531 0.79094,-0.83 0.75188,-0.88438 0.64281,-0.84906 -0.004,0 0.0663,-0.0897 0.65844,-0.98563 0.61156,-1.03656 0.56094,-1.08312 0.50281,-1.13375 0.44406,-1.1725 0.20656,-0.63907 0.004,0 0.18312,-0.57656 0.335,-1.25844 0.26906,-1.30125 0.21406,-1.34031 0.15219,-1.37531 0.0894,-1.41406 0.0312,-1.4025 0,-7.7375 -47.16906,0 z m 128.91126,0 -0.45188,1.58562 -0.37406,1.65563 -0.28438,1.59375 -0.19875,1.56219 -0.11687,1.52718 -0.0391,1.49219 0.0431,1.45719 0.11688,1.42187 0.19468,1.37938 0.26875,1.34 0.335,1.29375 0.0312,0.0972 0.37406,1.14937 0.4675,1.2 0.53,1.15313 0.58032,1.09875 0.63906,1.04406 0.33875,0.495 0.34313,0.49844 0.72843,0.93531 0.76375,0.87656 0.8025,0.82594 0.82969,0.76344 0.86125,0.71312 0.70906,0.52969 0.009,0 0.16657,0.12469 0.90374,0.6 0.91563,0.54562 0.935,0.49469 0.94281,0.44031 0.95438,0.38563 0.9625,0.335 0.96218,0.28062 0.97407,0.22969 0.97,0.17156 1.20406,0.15188 1.22344,-0.0312 0.79062,0 0.80657,0.008 0.82593,0.0197 0.84938,0.0234 0.87281,0.0194 0.89594,0.008 0.91937,-0.004 0.95063,-0.0231 0.98187,-0.0584 1.00531,-0.10156 1.03626,-0.14782 1.05593,-0.21062 1.07907,-0.28031 1.09093,-0.36625 1.09094,-0.44813 1.08313,-0.54531 1.0675,-0.64281 1.04,-0.7325 0.29562,-0.24563 6e-4,0 0.70907,-0.58437 0.96625,-0.92344 0.92718,-1.01281 0.89219,-1.09875 0.85313,-1.19219 0.21062,-0.33094 0.004,0 0.60781,-0.95469 0.79469,-1.37906 0.7675,-1.48437 0.74813,-1.58563 0.31562,-0.73656 0.40906,-0.96219 0.71282,-1.81562 0.6975,-1.94407 0.67406,-2.04531 3.05844,-9.63875 -49.70156,0 z m 87.76531,0 3.10531,10.26969 0.59219,1.85843 0.635,1.78438 0.66219,1.68687 0.35093,0.80657 -0.008,0 0.33875,0.78312 0.72094,1.5 0.75562,1.40656 0.78719,1.32469 0.74781,1.12594 0.004,0 0.0778,0.11281 0.85719,1.15719 0.89218,1.07531 0.92719,0.99719 0.9625,0.91187 0.99344,0.82969 0.0778,0.0584 0.005,0 0.93781,0.68594 1.04031,0.66594 1.05969,0.58468 1.07157,0.50625 1.07124,0.42469 1.07126,0.35844 1.06374,0.29219 1.04813,0.22593 1.03625,0.17938 1.01688,0.12844 0.99343,0.0859 0.97,0.0584 0.94688,0.0272 0.92343,0 0.9,-0.0119 0.8725,-0.0231 0.85344,-0.0312 0.82188,-0.035 0.77531,-0.0312 1.01313,-0.0312 1.2,-0.11688 1.19593,-0.18687 1.18438,-0.26125 1.16875,-0.33094 1.14937,-0.3975 1.13375,-0.47125 1.10656,-0.53406 1.07907,-0.59969 1.05593,-0.66625 0.68813,-0.495 0.009,0 0.3275,-0.2375 0.98563,-0.79875 0.95062,-0.86094 0.89594,-0.92719 0.85719,-0.98968 0.79875,-1.05188 0.18687,-0.27656 -0.004,0 0.565,-0.83375 0.68156,-1.17281 0.61969,-1.22719 0.54531,-1.28563 0.4675,-1.3325 0.0819,-0.28843 0.004,0 0.31187,-1.09875 0.30376,-1.42969 0.22218,-1.47281 0.1325,-1.5075 0.0388,-1.55063 -0.0584,-1.57812 -0.14407,-1.61282 -0.24937,-1.64031 -0.34656,-1.66344 -0.44438,-1.69093 -0.37375,-1.16094 -51.29906,0 z m 61.52593,0 0,7.7375 0.0272,1.3675 0.0897,1.38687 0.14812,1.35188 0.20657,1.31687 0.26093,1.27782 0.31938,1.24281 0.23375,0.72469 0.008,0 0.15188,0.47937 0.4325,1.16469 0.495,1.12219 0.54906,1.08312 0.59625,1.0325 0.65063,0.98938 0.2025,0.26906 -0.004,0 0.5025,0.67375 0.74407,0.88844 0.78312,0.8375 0.83,0.78312 0.86469,0.7325 0.89219,0.67781 0.805,0.54563 -0.002,0 0.11688,0.0819 0.94656,0.56875 0.97406,0.52187 0.9975,0.46782 1.01281,0.41687 1.02875,0.37 1.04406,0.31938 1.05188,0.27281 1.05969,0.23 1.06375,0.18281 1.07531,0.14438 1.07906,0.10125 1.08313,0.0584 1.08687,0.0194 1.00125,-0.0194 1.00906,-0.0547 1.01688,-0.0972 1.01688,-0.13657 1.01687,-0.17906 1.01313,-0.21812 1.02062,-0.26125 1.00531,-0.30782 1.00125,-0.35062 0.98938,-0.40125 0.98594,-0.44781 0.96593,-0.50282 0.95063,-0.54937 0.34875,-0.22594 0.006,0 0.57657,-0.37406 0.90781,-0.65844 0.88062,-0.70906 0.84907,-0.76344 0.81437,-0.82219 0.77906,-0.8725 0.73657,-0.93125 0.0116,-0.0116 0.68563,-0.97031 0.63906,-1.03625 0.59218,-1.08312 0.53376,-1.1375 0.47531,-1.17657 0.24937,-0.73656 -0.004,0 0.1675,-0.49094 0.35844,-1.27 0.29219,-1.31281 0.23375,-1.35219 0.1675,-1.39468 0.0934,-1.42969 0.0313,-1.41031 0,-7.74532 -46.82626,0 z m 67.44782,0 11.27875,16.40594 -0.004,0 0.80656,1.17281 1.98312,2.69219 1.97907,2.27531 -0.004,0 0.17532,0.2025 2.25594,2.18187 2.35312,1.88157 1.33625,0.87656 0.01,0 1.08125,0.70906 2.48969,1.29344 2.5325,0.9975 2.55187,0.70531 2.55563,0.42063 2.52843,0.15187 2.4975,-0.11281 2.42719,-0.35844 2.35312,-0.58844 2.25969,-0.80625 2.15438,-1.00531 2.03781,-1.19219 0.29844,-0.21437 0.002,0 1.60906,-1.14938 1.7725,-1.52718 1.62469,-1.67532 0.63906,-0.79062 0.82969,-1.02875 1.29344,-1.94781 1.10281,-2.065 0.45969,-1.09875 0.004,0 0.44812,-1.07907 0.69344,-2.27937 0.44813,-2.36094 0.2025,-2.42312 -0.0778,-2.47407 -0.35468,-2.49343 -0.64657,-2.49344 -0.31187,-0.8025 -59.675,0 z m 140.78218,0 0,7.05156 0.0313,1.34438 0.0897,1.375 0.15188,1.3325 0.22218,1.29343 0.27657,1.25469 0.33875,1.22344 0.40531,1.17656 0.14406,0.35438 0.31969,0.78312 0.51812,1.09469 0.56876,1.04812 0.62718,1.00125 0.68188,0.94688 0.72468,0.89594 0.335,0.37031 0.43626,0.47531 0.80656,0.79469 0.84562,0.7325 0.8725,0.67781 0.90782,0.62719 0.92718,0.57656 0.95063,0.52219 0.97031,0.47156 0.59906,0.26094 -0.007,0 0.37375,0.15969 1.00156,0.37781 1.01281,0.3275 1.01688,0.28812 1.02469,0.24157 1.03624,0.2025 1.03626,0.16375 1.03656,0.12468 1.04406,0.0856 1.04031,0.0506 0.99719,0.0156 52.95469,0 3.30375,-0.10125 3.2375,-0.24531 3.14812,-0.38594 3.05438,-0.51812 2.95718,-0.65438 0.46563,-0.12875 0.0175,0 2.38437,-0.65843 2.77,-0.91532 2.67282,-1.04437 2.57125,-1.16875 2.46625,-1.28938 0.105,-0.0662 0.008,0 2.25187,-1.34437 2.25594,-1.52313 2.14656,-1.63656 1.91313,-1.63625 0.12063,-0.10125 1.92468,-1.84656 1.80782,-1.93656 1.69468,-2.03375 1.58188,-2.11938 1.46094,-2.205 1.34812,-2.28312 1.22719,-2.35313 0.70125,-1.52719 -125.91532,0 z m 149.24844,0 0.29625,0.61937 1.60907,2.88313 1.7375,2.72719 1.86624,2.57906 1.9675,2.43125 2.06469,2.27906 2.14688,2.135 0.84156,0.75188 0.004,0 1.38312,1.24281 2.28688,1.85469 2.33375,1.71406 1.99094,1.32875 -0.004,0 0.38562,0.25687 2.40782,1.45719 2.43093,1.32469 2.43907,1.20781 2.01812,0.89594 0.0119,0 0.41281,0.18719 2.435,0.96625 2.41531,0.85687 2.39219,0.74438 2.35719,0.63875 2.31406,0.53781 2.2675,0.4325 2.20125,0.335 2.15062,0.2375 2.06875,0.14031 1.99875,0.0469 2.07657,-0.0469 2.16624,-0.14406 2.22063,-0.24156 2.29469,-0.33907 2.34156,-0.44406 2.38844,-0.54156 2.42718,-0.65063 2.45813,-0.75968 2.47813,-0.87282 2.48937,-0.98562 0.22906,-0.0975 9e-4,0 2.26344,-1.00125 2.49343,-1.22313 2.47407,-1.35218 2.44656,-1.47657 0.13656,-0.0894 2.27531,-1.51968 2.36876,-1.74532 2.31031,-1.88187 1.09843,-0.99344 -0.004,0 1.14156,-1.02844 2.16625,-2.16625 2.06875,-2.31031 1.97125,-2.46625 1.8625,-2.61031 1.73343,-2.76625 1.58969,-2.91813 0.0703,-0.14 -107.26906,0 z"
   id="path25" /><path
   inkscape:connector-curvature="0"
   style="fill:#e20015"
   clip-path="none"
   d="m 695.07557,11.05033 c -30.18629,0 -54.54434,22.64352 -54.88719,54.54406 l 0,38.46157 0,36.3225 c 0.27273,16.61648 6.15199,28.83827 14.27906,37.51468 12.16724,13.00099 29.36007,18.06188 40.265,18.06188 11.427,0 28.82286,-5.10391 41.02906,-18.06594 l -0.004,0 c 8.2985,-8.81277 14.205,-21.25671 14.205,-38.19656 l -0.16375,-35.63656 -0.17906,-38.46157 C 749.96254,33.69385 724.91907,11.05033 695.07563,11.05033 z m -491.58313,0.68938 c -11.32181,0.33895 -20.2398,6.51436 -23.67218,18.52187 l -21.18657,73.79438 -19.28906,67.19812 c -0.60388,2.39995 -0.86497,4.61297 -0.84937,6.635 l 37.40937,0 c 0.16363,-0.4831 0.32355,-0.98181 0.48719,-1.49219 l 4.46094,-14.06468 45.27937,0 4.46094,14.75437 0.24531,0.79469 39.33406,0.008 c 0.008,-2.5441 -0.45183,-5.33372 -1.50375,-8.35312 l -19.515,-65.48 -21.99312,-73.79438 C 223.38923,17.91121 214.4675,12.07865 203.49244,11.7397 z m 66.68,166.14937 -39.33,-0.004 c 5.84402,18.38138 14.96457,17.37614 23.42282,17.03719 7.48813,0 15.87991,-6.28045 15.90718,-17.03344 z m -94.26781,0 -37.40937,0.004 c 0.074,10.68286 7.82702,16.11385 13.88531,16.68656 9.3777,-0.33505 16.79564,3.25695 23.52406,-16.69062 z M 307.43807,11.73971 c -9.95041,0 -18.18281,5.83256 -18.18281,18.52187 l 0,73.79438 0,72.00219 c 0,0.62725 0.0195,1.23874 0.0584,1.83093 l 36.24469,-0.004 c 0.0428,-0.59219 0.0662,-1.20382 0.0662,-1.82719 l 0,-54.54812 38.73406,56.37906 -0.004,0 3.45594,5.02969 c 14.88666,21.92285 37.67822,10.53098 39.38469,-5.02969 0.45583,-4.15704 -0.59209,-8.61399 -3.705,-12.81 l -34.64719,-47.34062 c -0.19478,-0.19478 10.4307,-3.22882 19.72969,-13.67875 l 0.003,0 c 7.16866,-8.05695 13.5425,-20.52407 13.5425,-39.49375 0,-26.41495 -22.64338,-52.82625 -55.91531,-52.82625 l -38.76531,0 z m 138.17219,0.325 c -9.00107,-9e-4 -17.76626,5.85454 -17.76626,18.19687 l 0,73.79438 -0.004,0 0,72.00218 c 0,0.62726 0.0271,1.23875 0.07,1.83094 l 37.25781,0 c 0.0467,-0.59219 0.07,-1.20368 0.07,-1.83094 l 0,-72.00218 0,-74.48031 c 0,-11.32183 -9.60762,-17.15013 -18.86844,-17.49688 -0.25323,-0.009 -0.50633,-0.014 -0.75937,-0.0141 z m 19.55781,165.82437 -37.26157,0.004 c 0.82986,11.7192 9.6466,16.68656 18.45938,16.68656 8.81667,0 17.94117,-4.96752 18.80219,-16.69062 z M 29.91338,12.42565 c -9.26471,0 -18.86844,5.14662 -18.86844,17.83593 l 0,73.79438 0.004,0 0,72.00219 c 0,0.62336 0.0193,1.23484 0.0622,1.83093 l 3.1e-4,0 c 0.8354,12.01641 9.97444,16.69063 18.80188,16.69063 8.50109,0 17.00236,-4.67533 17.78156,-16.69063 l -18.29094,-0.002 18.29469,-0.002 c 0.0351,-0.59219 0.0547,-1.20382 0.0547,-1.82719 l 0,-54.54812 37.05093,0 0,54.54812 c 0,0.62337 0.0195,1.23485 0.0584,1.83094 l 3.1e-4,0 c 0.80806,12.0164 9.6198,16.69063 18.12,16.69063 8.5011,0 17.31383,-4.67533 18.12031,-16.69063 l -18.11938,-0.002 18.12344,-0.002 c 0.039,-0.59219 0.0584,-1.20382 0.0584,-1.82718 l 0,-72.00219 -0.004,0 0,-73.45157 c 0,-12.6932 -9.26064,-18.17875 -18.1825,-18.17874 -9.26082,0 -18.17906,5.14662 -18.17906,17.83593 l 0,54.88688 -36.70813,0 0,-55.22969 c 0,-12.00751 -9.26078,-17.49312 -18.17875,-17.49312 z m 526.89625,1.37 c -0.10756,2e-4 -0.21525,6e-4 -0.32313,10e-4 l -40.8225,0 c -8.91797,0 -18.1825,5.48563 -18.1825,17.49313 l 0,72.76594 -0.004,0 0,71.3125 c 0,0.8766 0.0429,1.71415 0.12469,2.52062 l 0.004,0 c 1.10802,10.81643 9.43273,14.97625 18.0575,14.97625 l 52.82626,0 c 16.53467,-0.16753 29.00576,-5.81283 37.32374,-14.97625 l -54.105,-0.002 54.105,-0.002 c 8.59852,-9.4673 12.76331,-22.69034 12.41657,-37.50687 0,-18.30346 -4.60898,-27.11233 -15.0425,-36.3225 l -0.004,0 c -1.29613,-1.14418 -2.68178,-2.29627 -4.16062,-3.47157 24.60421,-25.96638 12.7866,-86.65386 -41.89125,-86.78874 -0.10722,-3e-4 -0.21463,-2e-4 -0.32219,0 z m 137.58,33.95906 c 7.54657,0 18.86844,3.77508 18.86844,17.83968 l 0,38.46157 0,35.63656 c 0,13.03605 -7.20771,19.89719 -18.52563,19.89719 -10.63611,0.34285 -18.1825,-6.17544 -18.1825,-19.89719 l 0,-35.63656 0,-38.46157 c 0,-13.72175 10.97491,-17.83968 17.83969,-17.83968 z m -368.77281,0.34656 20.92937,0 c 22.29687,0 21.95402,36.70438 0,36.70438 l -20.92937,0 0,-36.70438 z m 208.23,0 17.48906,0 c 27.10065,0 27.79025,36.70438 0,36.70438 l -17.48906,0 0,-36.70438 z m -331.04,33.96156 6.405,21.99313 6.28812,21.57219 -25.72937,0 6.45562,-21.57219 6.58063,-21.99313 z m 331.03625,39.44719 27.79,0 c 22.29687,0.34285 20.92543,36.36531 0.34281,36.36531 l -28.13281,0 0,-36.36531 z m -208.28875,56.37906 -36.23688,0.004 c 0.76751,11.7192 8.97652,16.68656 18.11656,16.68656 8.17384,0 17.28268,-4.67532 18.12032,-16.69062 z"
   id="path45" /><path
   style="fill:#ffffff"
   inkscape:connector-curvature="0"
   id="path51"
   d="m 22.96681,18.57735 c 2.3532,-1.461 5.49728,0.88439 3.38953,3.60381 -3.23368,3.33109 -4.41028,5.62584 -5.73882,10.2543 -1.44542,2.79344 -5.64142,1.59347 -5.02196,-1.82723 0.70128,-4.66352 3.20642,-9.59198 7.37125,-12.03088"
   clip-path="none" /><path
   style="fill:#ffffff"
   inkscape:connector-curvature="0"
   id="path53"
   d="m 673.08633,21.0708 c 2.68435,-0.31948 4.49989,3.06226 1.51165,4.59729 -4.25055,1.61295 -9.13225,6.18686 -12.22568,9.73613 -2.4389,1.87788 -5.6648,-0.92725 -3.69342,-3.70121 2.55189,-3.84536 9.70496,-10.19586 14.40745,-10.63221"
   clip-path="none" /><path
   style="fill:#ffffff"
   inkscape:connector-curvature="0"
   id="path55"
   d="m 96.66765,18.12931 c 2.35319,-1.46101 5.49727,0.88829 3.38953,3.59991 -3.23369,3.33499 -4.41029,5.62974 -5.73883,10.2582 -1.44542,2.78954 -5.64142,1.59347 -5.02195,-1.82723 0.70128,-4.66742 3.20641,-9.59198 7.37125,-12.03088"
   clip-path="none" /><path
   style="fill:#ffffff"
   inkscape:connector-curvature="0"
   id="path57"
   d="m 196.00034,18.44878 c 2.61422,-0.91167 5.1739,2.06489 2.52072,4.25444 -3.88043,2.548 -5.52844,4.53496 -7.83098,8.75824 -2.01814,2.41163 -5.85571,0.32726 -4.50379,-2.87526 1.69866,-4.40249 5.21286,-8.66473 9.81405,-10.13742"
   clip-path="none" /><path
   style="fill:#ffffff"
   inkscape:connector-curvature="0"
   id="path59"
   d="m 301.36405,17.4553 c 2.35319,-1.46101 5.49727,0.88829 3.38953,3.59991 -3.23369,3.33499 -4.41028,5.62974 -5.74272,10.2582 -1.44152,2.78954 -5.63753,1.59347 -5.01806,-1.82723 0.70128,-4.66742 3.20642,-9.59198 7.37125,-12.03088"
   clip-path="none" /><path
   style="fill:#ffffff"
   inkscape:connector-curvature="0"
   id="path61"
   d="m 438.51532,19.32928 c 2.13111,-1.76879 5.57129,0.13246 3.84536,3.10512 -2.75058,3.74407 -3.59991,6.17907 -4.28951,10.94 -1.05582,2.96486 -5.37649,2.34929 -5.22455,-1.12595 0.0662,-4.71807 1.87788,-9.93872 5.6687,-12.91917"
   clip-path="none" /><path
   style="fill:#ffffff"
   inkscape:connector-curvature="0"
   id="path63"
   d="m 508.98246,19.7033 c 2.35319,-1.46101 5.49727,0.88829 3.38953,3.59991 -3.23369,3.33499 -4.41028,5.62974 -5.74272,10.2582 -1.44542,2.78954 -5.63753,1.59346 -5.02196,-1.82723 0.70518,-4.66742 3.21032,-9.59198 7.37515,-12.03088"
   clip-path="none" />
</svg>