<svg xmlns="http://www.w3.org/2000/svg" viewBox="0 0 266.41 470"><defs><style>.cls-1{fill:#b23f3f;}</style></defs><title>bear</title><g id="Ebene_2" data-name="Ebene 2"><g id="Capa_1" data-name="Capa 1"><path id="shape--bg" class="cls-1" d="M266.41,267.56V246a49.87,49.87,0,0,0-12.05-31.8A44.16,44.16,0,0,0,239,202.49c.09-29.44.22-83.42.06-101.51C255.38,93.86,266,77.71,266,59.15a45.62,45.62,0,0,0-70.05-38.56,105.83,105.83,0,0,0-125.43,0A45.64,45.64,0,0,0,.43,59.15C.43,77.71,11,93.86,27.32,101c-.16,18.09,0,72.06.06,101.51a44,44,0,0,0-15.33,11.75A49.87,49.87,0,0,0,0,246v21.52a41.91,41.91,0,0,0,27.39,39.27v28.46A42.59,42.59,0,0,0,0,375v44.38a50.61,50.61,0,0,0,100.66,7.5h65.09a50.61,50.61,0,0,0,100.66-7.5V375A42.58,42.58,0,0,0,239,335.29V306.83A41.9,41.9,0,0,0,266.41,267.56Z"/><path d="M207,171.21a7.48,7.48,0,0,0-10.6-.17A90.8,90.8,0,0,1,70,171a7.5,7.5,0,0,0-10.44,10.77,105.79,105.79,0,0,0,147.22,0A7.48,7.48,0,0,0,207,171.21Z"/><path d="M266.41,267.56V246a49.87,49.87,0,0,0-12.05-31.8A44.16,44.16,0,0,0,239,202.49c.09-29.44.22-83.42.06-101.51C255.38,93.86,266,77.71,266,59.15a45.62,45.62,0,0,0-70.05-38.56,105.83,105.83,0,0,0-125.43,0,45.64,45.64,0,0,0-70,38.57C.44,77.71,11,93.86,27.32,101c-.16,18.09,0,72.06.06,101.51a44,44,0,0,0-15.33,11.75A49.87,49.87,0,0,0,0,246v21.52a41.91,41.91,0,0,0,27.39,39.27v28.46A42.59,42.59,0,0,0,0,375v44.38a50.61,50.61,0,0,0,100.66,7.5h65.09a50.61,50.61,0,0,0,100.66-7.5V375A42.58,42.58,0,0,0,239,335.29V306.83A41.9,41.9,0,0,0,266.41,267.56ZM223.9,332.5a7.5,7.5,0,1,0,0,15A27.54,27.54,0,0,1,251.41,375v8.46a50.58,50.58,0,0,0-85.66,28.42H100.66A50.58,50.58,0,0,0,15,383.47V375A27.54,27.54,0,0,1,42.51,347.5a7.5,7.5,0,0,0,0-15H42.4V309.39a41.84,41.84,0,1,0-24.72-76c4.38-10.43,13.71-19.25,24.83-19.25a7.5,7.5,0,0,0,0-15h-.14c-.12-42-.21-98.78,0-102.8A7.5,7.5,0,0,0,37,88.56C24.1,84.81,15.44,73,15.44,59.15A30.61,30.61,0,0,1,58.31,31.06,105.58,105.58,0,0,0,40.17,55.37a7.5,7.5,0,1,0,13.18,7.16,90.88,90.88,0,0,1,159.71,0,7.5,7.5,0,0,0,13.18-7.16,105.68,105.68,0,0,0-18.16-24.3A30.61,30.61,0,0,1,251,59.15c0,13.84-8.66,25.66-21.55,29.41A7.51,7.51,0,0,0,224,96.38c.21,4,.12,60.79,0,102.8h-.15a7.5,7.5,0,0,0,0,15c11.13,0,20.46,8.82,24.84,19.25a41.83,41.83,0,1,0-24.72,76V332.5Zm-43.71,86.89A35.61,35.61,0,1,1,215.8,455,35.65,35.65,0,0,1,180.19,419.39ZM50.61,455a35.61,35.61,0,1,1,35.6-35.61A35.64,35.64,0,0,1,50.61,455ZM41.85,240.72A26.85,26.85,0,1,1,15,267.56,26.87,26.87,0,0,1,41.85,240.72Zm182.71,53.69a26.85,26.85,0,1,1,26.85-26.85A26.87,26.87,0,0,1,224.56,294.41Z"/><path d="M102.27,322.85a7.5,7.5,0,0,0,7.5-7.5V274.93A23.46,23.46,0,0,1,133.2,251.5a7.5,7.5,0,0,0,0-15,38.47,38.47,0,0,0-38.43,38.43v40.42A7.5,7.5,0,0,0,102.27,322.85Z"/><path d="M164.14,337.85a7.5,7.5,0,0,0-7.5,7.5,23.44,23.44,0,1,1-46.87,0,7.5,7.5,0,0,0-15,0,38.44,38.44,0,1,0,76.87,0A7.5,7.5,0,0,0,164.14,337.85Z"/><path d="M110.47,133.46A7.49,7.49,0,0,0,100.94,145a50.72,50.72,0,0,0,64.54,0,7.5,7.5,0,0,0-9.54-11.57,36,36,0,0,1-15.23,7.36V122.53a7.5,7.5,0,1,0-15,0v18.29A36,36,0,0,1,110.47,133.46Z"/><path d="M66.22,90.72a7.49,7.49,0,0,0,9.53-4.66,61.28,61.28,0,0,1,37.78-37.77,7.5,7.5,0,0,0-4.88-14.18A76.38,76.38,0,0,0,61.57,81.19,7.5,7.5,0,0,0,66.22,90.72Z"/></g></g></svg>