<svg xmlns="http://www.w3.org/2000/svg" viewBox="0 0 669.19 628.45"><defs><style>.cls-1{fill:#423b3b;}</style></defs><title>escargot</title><g id="Ebene_2" data-name="Ebene 2"><g id="Capa_1" data-name="Capa 1"><path class="cls-1" d="M335.83,620.45A327.81,327.81,0,0,1,145.6,559.57C87.51,518.1,45.22,459.34,23.32,389.64-4.37,301.52,5.56,214.23,52.84,130.17c5.28-9.4,14.09-15,23.56-15a23.88,23.88,0,0,1,12.17,3.37,22.47,22.47,0,0,1,11.4,19.2q4.71-7.35,9.9-14.43C153,64.51,217.46,25.16,291.42,12.5c12.13-2.08,24.47-2.76,36.4-3.41,5.39-.3,10.95-.6,16.35-1l.26,0h.25c1.48,0,3,0,4.48,0,55.26,0,115.78,15.58,166,42.75,60.38,32.65,103.65,80.05,125.15,137.1,23.7,62.9,27.23,132.74,9.94,196.65-18.6,68.72-59.77,128-119.07,171.33C473.41,598.1,405.85,620.45,335.83,620.45Zm-57-57.7c1.87.41,3.76.8,5.65,1.17a269.64,269.64,0,0,0,52,5.1c66.75,0,131.64-24.81,182.73-69.86a275.92,275.92,0,0,0,61-76.86,280.55,280.55,0,0,1-88.62,97.62c-46.41,31.42-101.19,48-158.41,48-9.2,0-18.55-.43-27.8-1.3A253.23,253.23,0,0,1,278.82,562.75Zm-66.53-82a212.1,212.1,0,0,0,27.73,16c28.77,13.79,60.73,20.78,95,20.78l2.67,0h-2c-6.54,0-13.16-.3-19.66-.89A228,228,0,0,1,212.29,480.72Zm273.2-20.63q-4.62,4.07-9.48,7.92c-38.93,30.78-86.68,48.22-135,49.41a285,285,0,0,0,28.44-2.13C411.17,510.11,452,490.63,485.49,460.09ZM336.81,471.9q7.63,0,15.16-.71-8.12.71-16.19.71h1ZM218,428.66a168.35,168.35,0,0,0,55,32.07,180.21,180.21,0,0,1-50.05-28Q220.44,430.72,218,428.66ZM472.1,350.17a257.81,257.81,0,0,1-3,26.88c-4.35,26.18-15.95,47.43-34.2,63.15C453.14,429.1,471,416.05,486.08,399c9.93-11.27,16.63-22.34,20.34-33.8-1.5,1.93-3.09,3.7-4.58,5.35-1.13,1.26-2.2,2.45-3.17,3.64l-5.77,7.06-6.25-6.64a46.62,46.62,0,0,0-3.61-3.25c-3.94-3.33-8.83-7.47-9.85-13.62Q472.57,353.95,472.1,350.17ZM349.84,241.76c-8.88,0-15.22,2.42-17.85,6.82-2.76,4.63-1.75,11.89,2.85,20.46,6.74,12.51,16.86,24,26.65,35.15l3.89,4.43a130,130,0,0,0,13.27,12.53c4.18,3.6,8.51,7.33,12.5,11.52,18.24,19.13,22.1,46.19,10.07,70.63a44.1,44.1,0,0,1-6.86,10.18,76.54,76.54,0,0,0,7.51-6.87c5.48-5.72,10.91-11.9,13.52-18.4,15.78-39.2,15.63-73.89-.46-106-12.38-24.76-33.07-38.31-61.48-40.28C352.22,241.8,351,241.76,349.84,241.76Zm-68-30.38a78.53,78.53,0,0,0-8.41,6.37c-17.32,15.11-26.68,35.63-28.6,62.73a103.45,103.45,0,0,0,13.64,59.39,100.83,100.83,0,0,0,44.44,41,53.94,53.94,0,0,0,22.88,5.58,45.64,45.64,0,0,0,20.49-5c2.69-1.31,6.06-3.45,6.86-6.12.72-2.45-.72-5.65-2.07-7.91-3.81-6.39-9.23-12.16-15.4-18.51-11.44-11.77-23.26-23.59-34.69-35q-8.13-8.13-16.24-16.27a38.29,38.29,0,0,1-3.84-4.65c-19.46-27.14-18-48-13.35-60.79A52.29,52.29,0,0,1,281.83,211.38Z"/><path d="M349.16,16c100.12,0,237.94,53.22,283.7,174.67,46,122,15.35,269.7-106.36,358.7-58.84,43-125.44,63.08-190.67,63.08-133,0-260.29-83.31-304.88-225.21C3.34,299.36,14.64,214.41,59.81,134.09c4-7.09,10.29-10.93,16.59-10.93a15.81,15.81,0,0,1,8.1,2.26c8.46,5,9.91,14.85,3.8,25.76-95.88,171,2,382.56,194.63,420.59A277,277,0,0,0,336.52,577C477.15,577,603.3,469.5,618.43,324.73c9.43-90.17-29.5-159.2-99.43-211.83C468.4,74.82,410.39,60.82,348.58,60.82q-9.52,0-19.16.43C264.89,64.1,210.8,88.38,165.94,134.59c-78.34,80.68-83.46,218.6-11,304.49,48.7,57.71,108.91,86.41,180.05,86.41a285.86,285.86,0,0,0,35.42-2.26C468.68,511,552.22,425,566.4,327.11c12.83-88.62-37-190.07-158.14-214.65C386,107.94,363.76,105,341.69,105c-27.85,0-55.47,4.63-82.64,16.48-69.87,30.47-115,103.88-110.87,181S204.6,448.59,277.57,470.64c19.89,6,39.67,9.26,59.24,9.26A167.31,167.31,0,0,0,418,459c27.24-14.83,53.27-31.18,74.06-54.78,15.71-17.83,26-37.86,25.86-62.06-.15-32.64-3.9-65-15.09-95.7C480,183.64,423.77,145.92,358.45,145.92a180.21,180.21,0,0,0-43.2,5.37C254.2,166.36,210.34,202,195.3,264.87c-21.12,88.3,39.55,167.39,130.28,172.82,4.22.25,8.4.39,12.53.39,25.95,0,50.1-5.67,69.53-25.94,5.94-6.19,12-13.16,15.18-20.95,15.08-37.45,17.87-75.41-.73-112.61C408.21,250.84,384.85,236,354,233.9c-1.43-.1-2.82-.14-4.16-.14-24.44,0-34.41,16.07-22,39.06,8.08,15,20.2,28.06,31.55,41.07,7.77,8.88,17.83,15.72,26,24.3,16.15,16.94,19.05,40.52,8.68,61.57-6.17,12.56-17.13,18.17-29.88,21.18a130,130,0,0,1-29.77,3.44c-48.22,0-94.7-26.43-116.48-68.95C191,303,204.49,237.06,250.09,197.74A162.28,162.28,0,0,1,355.8,158.58c34.47,0,68.46,11.11,95.41,33.59C473.81,211,489,235.32,494.63,264c5.06,25.89,6.74,52.45,9.63,78.74.47,4.25.64,9.25-1.15,12.86-2.51,5-7,9.05-10.64,13.5-4-4.2-10.61-7.95-11.38-12.68-2.83-17.11-3-34.64-5.41-51.84-6.11-43.17-25.24-78.28-62.81-102.81C394.22,189.58,372,184.39,350,184.39c-31.85,0-63.09,10.94-81.88,27.33-20.6,18-29.42,41.38-31.32,68.19-3.25,45.7,21.57,88.81,62.65,108.17a61.48,61.48,0,0,0,26.29,6.35,54,54,0,0,0,24-5.77c11.57-5.67,14.73-14.26,8.14-25.31-4.38-7.35-10.51-13.8-16.53-20-16.82-17.29-34-34.24-51-51.35a29.63,29.63,0,0,1-3-3.68c-30.25-42.18-11.66-76.28,33.41-87.78a124,124,0,0,1,30.68-4c58.81,0,104.75,45.11,111.68,109.64a259.44,259.44,0,0,1-2,69.52c-7.59,45.66-38.28,72.16-81.52,82.78a183.47,183.47,0,0,1-43.88,5.38c-80.33,0-150.61-54.32-170.17-136.79-25.3-106.61,59.14-211.29,167.62-211.29,2.25,0,4.49,0,6.76.13,37.49,1.5,74.39,5.63,108.87,21,81.46,36.2,119.94,115.31,99.8,203.21-22.57,98.48-113.42,169.36-213,169.36q-9.43,0-18.94-.86c-93.92-8.53-173.54-77-194.85-167.51C100.34,249.42,139.1,155,219.14,104.44,256.67,80.75,297.5,71,340.31,71q11.6,0,23.37.93c62.69,4.87,120.23,24.4,168.46,65.86,67.12,57.68,95.3,150.64,56.13,248.79-42.6,106.7-142,173.35-255,173.35q-13.41,0-27.06-1.26C186.29,547.51,83,448.22,66.69,328.46,46.34,179.28,144,45.85,292.77,20.38c17.09-2.92,34.68-3,52-4.35q2.16,0,4.35,0m0-16V0c-1.53,0-3.08,0-4.6,0h-.51l-.51,0c-5.31.43-10.82.73-16.15,1-12.16.67-24.74,1.36-37.32,3.51-76,13-142.3,53.49-186.65,114-.41.55-.81,1.11-1.21,1.67A32.4,32.4,0,0,0,76.4,107.16c-12.4,0-23.81,7.14-30.54,19.09C-2.54,212.31-12.69,301.73,15.69,392c22.43,71.37,65.74,131.55,125.26,174a335.79,335.79,0,0,0,194.88,62.37c71.72,0,140.92-22.88,200.11-66.17,60.79-44.45,103-105.2,122.07-175.69a324.06,324.06,0,0,0,10.72-101.74A331.48,331.48,0,0,0,647.83,185C625.65,126.16,581.1,77.29,519,43.72,467.62,15.94,405.71,0,349.16,0Zm66,363.23a68.56,68.56,0,0,0-18.25-36.08c-4.26-4.47-8.74-8.33-13.07-12.06a123.75,123.75,0,0,1-12.46-11.73c-1.3-1.48-2.6-3-3.91-4.45-9.93-11.29-19.31-22-25.61-33.66-3.66-6.81-3.82-11.25-3-12.57s4.21-2.92,11-2.92c1,0,2,0,3.06.1,25.74,1.78,43.69,13.52,54.88,35.88,12,23.9,14.43,49.42,7.41,77.49Zm-89.41,15.2c-6.21,0-12.58-1.58-19.47-4.82a92.84,92.84,0,0,1-40.92-37.74,95.52,95.52,0,0,1-12.59-54.82,105.27,105.27,0,0,1,4.27-23.94c1.47,11.63,6.37,25.26,17.32,40.53a45.39,45.39,0,0,0,4.66,5.64l16.23,16.26c11.42,11.42,23.23,23.23,34.64,35,5.82,6,10.9,11.39,14.27,17A13.65,13.65,0,0,1,345,373a14.9,14.9,0,0,1-2.21,1.28,37.81,37.81,0,0,1-17,4.14Zm144.08,25.82A125.86,125.86,0,0,0,477,378.36l.24-1.49.66.57c1.15,1,2.33,2,2.95,2.62l5.55,5.89c-1.92,2.57-4,5.14-6.3,7.73-3.26,3.71-6.68,7.22-10.21,10.57Z"/></g></g></svg>