<svg xmlns="http://www.w3.org/2000/svg" viewBox="0 0 552.5 474.72"><defs><style>.cls-1{fill:#b23f3f;}.cls-2{fill:#f9f9f9;}.cls-3{fill:#599642;}</style></defs><title>group--bears</title><g id="Ebene_2" data-name="Ebene 2"><g id="Capa_1" data-name="Capa 1"><path id="shape--bg" class="cls-1" d="M411,267.56V246a49.87,49.87,0,0,0-12.05-31.8,44.25,44.25,0,0,0-15.33-11.75c.09-29.44.22-83.42.06-101.51,16.29-7.12,26.88-23.27,26.88-41.83a45.62,45.62,0,0,0-70.05-38.56,105.83,105.83,0,0,0-125.43,0A45.64,45.64,0,0,0,145,59.15c0,18.56,10.59,34.71,26.88,41.83-.15,18.09,0,72.06.07,101.51a44,44,0,0,0-15.33,11.75A49.87,49.87,0,0,0,144.57,246v21.52A41.91,41.91,0,0,0,172,306.83v28.46A42.59,42.59,0,0,0,144.57,375v44.38a50.61,50.61,0,0,0,100.66,7.5h65.09A50.61,50.61,0,0,0,411,419.39V375a42.58,42.58,0,0,0-27.4-39.72V306.83A41.9,41.9,0,0,0,411,267.56Z"/><path d="M351.55,171.21A7.48,7.48,0,0,0,341,171a90.8,90.8,0,0,1-126.35,0,7.5,7.5,0,0,0-10.44,10.77,105.79,105.79,0,0,0,147.22,0A7.49,7.49,0,0,0,351.55,171.21Z"/><path d="M411,267.56V246a49.87,49.87,0,0,0-12.05-31.8,44.25,44.25,0,0,0-15.33-11.75c.09-29.44.22-83.42.06-101.51,16.29-7.12,26.88-23.27,26.88-41.83a45.62,45.62,0,0,0-70.05-38.56,105.83,105.83,0,0,0-125.43,0A45.64,45.64,0,0,0,145,59.15c0,18.56,10.59,34.71,26.88,41.83-.15,18.09,0,72.06.07,101.51a44,44,0,0,0-15.33,11.75A49.87,49.87,0,0,0,144.57,246v21.52A41.91,41.91,0,0,0,172,306.83v28.46A42.59,42.59,0,0,0,144.57,375v44.38a50.61,50.61,0,0,0,100.66,7.5h65.09A50.61,50.61,0,0,0,411,419.39V375a42.58,42.58,0,0,0-27.4-39.72V306.83A41.9,41.9,0,0,0,411,267.56ZM368.46,332.5a7.5,7.5,0,0,0,0,15A27.55,27.55,0,0,1,396,375v8.46a50.58,50.58,0,0,0-85.66,28.42H245.23a50.58,50.58,0,0,0-85.66-28.42V375a27.54,27.54,0,0,1,27.51-27.51,7.5,7.5,0,1,0,0-15H187V309.39a41.84,41.84,0,1,0-24.71-76c4.38-10.43,13.71-19.25,24.83-19.25a7.5,7.5,0,0,0,0-15h-.14c-.12-42-.21-98.78,0-102.8a7.5,7.5,0,0,0-5.38-7.82C168.67,84.81,160,73,160,59.15a30.61,30.61,0,0,1,42.87-28.09,105.58,105.58,0,0,0-18.14,24.31,7.5,7.5,0,1,0,13.18,7.16,90.88,90.88,0,0,1,159.71,0,7.5,7.5,0,1,0,13.18-7.16,105.68,105.68,0,0,0-18.16-24.3,30.61,30.61,0,0,1,42.89,28.08c0,13.84-8.66,25.66-21.55,29.41a7.5,7.5,0,0,0-5.38,7.82c.2,4,.12,60.79,0,102.8h-.15a7.5,7.5,0,0,0,0,15c11.13,0,20.46,8.82,24.84,19.25a41.83,41.83,0,1,0-24.72,76V332.5Zm-43.7,86.89A35.61,35.61,0,1,1,360.37,455,35.65,35.65,0,0,1,324.76,419.39ZM195.18,455a35.61,35.61,0,1,1,35.6-35.61A35.64,35.64,0,0,1,195.18,455Zm-8.77-214.28a26.85,26.85,0,1,1-26.84,26.84A26.87,26.87,0,0,1,186.41,240.72Zm182.72,53.69A26.85,26.85,0,1,1,396,267.56,26.87,26.87,0,0,1,369.13,294.41Z"/><path d="M246.84,322.85a7.5,7.5,0,0,0,7.5-7.5V274.93a23.46,23.46,0,0,1,23.43-23.43,7.5,7.5,0,0,0,0-15,38.47,38.47,0,0,0-38.43,38.43v40.42A7.5,7.5,0,0,0,246.84,322.85Z"/><path d="M308.71,337.85a7.5,7.5,0,0,0-7.5,7.5,23.44,23.44,0,1,1-46.87,0,7.5,7.5,0,0,0-15,0,38.44,38.44,0,1,0,76.87,0A7.5,7.5,0,0,0,308.71,337.85Z"/><path d="M255,133.46A7.5,7.5,0,0,0,245.5,145,50.72,50.72,0,0,0,310,145a7.49,7.49,0,1,0-9.53-11.57,36,36,0,0,1-15.23,7.36V122.53a7.5,7.5,0,1,0-15,0v18.29A36,36,0,0,1,255,133.46Z"/><path d="M210.79,90.72a7.49,7.49,0,0,0,9.53-4.66,61.29,61.29,0,0,1,37.77-37.77,7.5,7.5,0,1,0-4.87-14.18,76.38,76.38,0,0,0-47.08,47.08A7.5,7.5,0,0,0,210.79,90.72Z"/><path id="shape--bg-2" data-name="shape--bg" class="cls-2" d="M552.5,319.79V303.32A38.2,38.2,0,0,0,543.28,279a33.93,33.93,0,0,0-11.73-9c.06-22.53.16-63.84,0-77.68a34.57,34.57,0,0,0,20.58-32,34.93,34.93,0,0,0-53.62-29.51,81,81,0,0,0-96,0A34.92,34.92,0,0,0,349,160.29a34.56,34.56,0,0,0,20.57,32c-.12,13.84,0,55.15.05,77.68a33.83,33.83,0,0,0-11.73,9,38.2,38.2,0,0,0-9.22,24.34v16.47a32.09,32.09,0,0,0,21,30.06v21.77a32.59,32.59,0,0,0-21,30.4v34a38.73,38.73,0,0,0,77,5.73h49.82a38.73,38.73,0,0,0,77-5.73V402a32.59,32.59,0,0,0-21-30.4V349.85A32.08,32.08,0,0,0,552.5,319.79Z"/><path d="M507,246.05a5.75,5.75,0,0,0-8.12-.13,69.47,69.47,0,0,1-96.69,0,5.74,5.74,0,0,0-8,8.25,81,81,0,0,0,112.67,0A5.74,5.74,0,0,0,507,246.05Z"/><path d="M552.5,319.79V303.32A38.2,38.2,0,0,0,543.28,279a33.93,33.93,0,0,0-11.73-9c.06-22.53.16-63.84,0-77.68a34.57,34.57,0,0,0,20.58-32,34.93,34.93,0,0,0-53.62-29.51,81,81,0,0,0-96,0A34.92,34.92,0,0,0,349,160.29a34.56,34.56,0,0,0,20.57,32c-.12,13.84,0,55.15.05,77.68a33.83,33.83,0,0,0-11.73,9,38.2,38.2,0,0,0-9.22,24.34v16.47a32.09,32.09,0,0,0,21,30.06v21.77a32.59,32.59,0,0,0-21,30.4v34a38.73,38.73,0,0,0,77,5.73h49.82a38.73,38.73,0,0,0,77-5.73V402a32.59,32.59,0,0,0-21-30.4V349.85A32.08,32.08,0,0,0,552.5,319.79ZM520,369.49A5.74,5.74,0,0,0,520,381,21.09,21.09,0,0,1,541,402v6.47a38.7,38.7,0,0,0-65.55,21.75H425.65A38.7,38.7,0,0,0,360.1,408.5V402a21.08,21.08,0,0,1,21-21.06,5.74,5.74,0,0,0,0-11.48h-.09V351.81a32,32,0,1,0-18.91-58.14c3.35-8,10.49-14.73,19-14.73a5.74,5.74,0,0,0,0-11.48H381c-.09-32.15-.16-75.59,0-78.67a5.72,5.72,0,0,0-4.11-6,23.09,23.09,0,0,1-16.5-22.52,23.43,23.43,0,0,1,32.81-21.49,80.72,80.72,0,0,0-13.88,18.6,5.74,5.74,0,0,0,2.3,7.78,5.64,5.64,0,0,0,2.74.7,5.74,5.74,0,0,0,5.05-3,69.55,69.55,0,0,1,122.22,0,5.73,5.73,0,0,0,5.05,3,5.63,5.63,0,0,0,2.73-.7,5.73,5.73,0,0,0,2.31-7.78,81.09,81.09,0,0,0-13.9-18.6,23.45,23.45,0,0,1,32.83,21.49,23.09,23.09,0,0,1-16.5,22.52,5.73,5.73,0,0,0-4.12,6c.16,3.08.09,46.52,0,78.67H520a5.74,5.74,0,0,0,0,11.48c8.51,0,15.65,6.75,19,14.73a32,32,0,1,0-18.92,58.14v17.68ZM486.52,436a27.25,27.25,0,1,1,27.25,27.25A27.28,27.28,0,0,1,486.52,436Zm-99.17,27.25A27.25,27.25,0,1,1,414.6,436,27.28,27.28,0,0,1,387.35,463.24Zm-6.71-164a20.55,20.55,0,1,1-20.54,20.54A20.56,20.56,0,0,1,380.64,299.25Zm139.83,41.09A20.55,20.55,0,1,1,541,319.79,20.57,20.57,0,0,1,520.47,340.34Z"/><path d="M426.88,362.11a5.74,5.74,0,0,0,5.74-5.74V325.43a18,18,0,0,1,17.94-17.93,5.74,5.74,0,0,0,0-11.48,29.45,29.45,0,0,0-29.42,29.41v30.94A5.74,5.74,0,0,0,426.88,362.11Z"/><path d="M474.23,373.59a5.74,5.74,0,0,0-5.74,5.74,17.94,17.94,0,0,1-35.87,0,5.74,5.74,0,0,0-11.48,0,29.42,29.42,0,0,0,58.83,0A5.74,5.74,0,0,0,474.23,373.59Z"/><path d="M433.16,217.16a5.74,5.74,0,1,0-7.3,8.86,38.81,38.81,0,0,0,49.39,0,5.74,5.74,0,0,0-7.3-8.86,27.27,27.27,0,0,1-11.65,5.63v-14a5.74,5.74,0,0,0-11.48,0v14A27.31,27.31,0,0,1,433.16,217.16Z"/><path d="M399.3,184.45a5.52,5.52,0,0,0,1.86.32,5.74,5.74,0,0,0,5.43-3.88A46.9,46.9,0,0,1,435.5,152a5.74,5.74,0,0,0-3.73-10.86,58.45,58.45,0,0,0-36,36A5.74,5.74,0,0,0,399.3,184.45Z"/><path id="shape--bg-3" data-name="shape--bg" class="cls-3" d="M203.88,314.33V297.86a38.2,38.2,0,0,0-9.22-24.34,33.93,33.93,0,0,0-11.73-9c.07-22.54.17-63.85,0-77.69a34.55,34.55,0,0,0,20.57-32,34.92,34.92,0,0,0-53.61-29.51,81,81,0,0,0-96,0A34.93,34.93,0,0,0,.33,154.83a34.55,34.55,0,0,0,20.57,32c-.11,13.84,0,55.15.05,77.69a33.93,33.93,0,0,0-11.73,9A38.2,38.2,0,0,0,0,297.86v16.47a32.07,32.07,0,0,0,21,30.05v21.78a32.57,32.57,0,0,0-21,30.4v34a38.73,38.73,0,0,0,77,5.74h49.82a38.73,38.73,0,0,0,77-5.74v-34a32.57,32.57,0,0,0-21-30.4V344.38A32.07,32.07,0,0,0,203.88,314.33Z"/><path d="M158.4,240.59a5.73,5.73,0,0,0-8.11-.13,69.49,69.49,0,0,1-96.7,0,5.74,5.74,0,0,0-8,8.24,80.93,80.93,0,0,0,112.66,0A5.73,5.73,0,0,0,158.4,240.59Z"/><path d="M203.88,314.33V297.86a38.2,38.2,0,0,0-9.22-24.34,33.93,33.93,0,0,0-11.73-9c.07-22.54.17-63.85,0-77.69a34.55,34.55,0,0,0,20.57-32,34.92,34.92,0,0,0-53.61-29.51,81,81,0,0,0-96,0A34.93,34.93,0,0,0,.33,154.83a34.55,34.55,0,0,0,20.57,32c-.11,13.84,0,55.15.05,77.69a33.93,33.93,0,0,0-11.73,9A38.2,38.2,0,0,0,0,297.86v16.47a32.07,32.07,0,0,0,21,30.05v21.78a32.57,32.57,0,0,0-21,30.4v34a38.73,38.73,0,0,0,77,5.74h49.82a38.73,38.73,0,0,0,77-5.74v-34a32.57,32.57,0,0,0-21-30.4V344.38A32.07,32.07,0,0,0,203.88,314.33ZM171.35,364a5.74,5.74,0,1,0,0,11.48,21.07,21.07,0,0,1,21.05,21.05V403a38.7,38.7,0,0,0-65.55,21.75H77A38.7,38.7,0,0,0,11.48,403v-6.47a21.08,21.08,0,0,1,21.06-21.05,5.74,5.74,0,0,0,0-11.48h-.1V346.34a32,32,0,1,0-18.91-58.13c3.35-8,10.49-14.74,19-14.74a5.74,5.74,0,0,0,0-11.48h-.11c-.1-32.15-.16-75.6,0-78.68a5.76,5.76,0,0,0-4.12-6,23.08,23.08,0,0,1-16.5-22.51,23.45,23.45,0,0,1,32.81-21.5,81.06,81.06,0,0,0-13.88,18.61,5.74,5.74,0,0,0,10.09,5.48,69.54,69.54,0,0,1,122.22,0,5.74,5.74,0,0,0,10.09-5.48,80.59,80.59,0,0,0-13.9-18.6,23.45,23.45,0,0,1,32.83,21.49,23.08,23.08,0,0,1-16.5,22.51,5.74,5.74,0,0,0-4.11,6c.15,3.08.09,46.53,0,78.68h-.11a5.74,5.74,0,1,0,0,11.48c8.51,0,15.65,6.76,19,14.74a32,32,0,1,0-18.91,58.13V364ZM137.9,430.52a27.25,27.25,0,1,1,27.25,27.25A27.29,27.29,0,0,1,137.9,430.52ZM38.73,457.77A27.25,27.25,0,1,1,66,430.52,27.28,27.28,0,0,1,38.73,457.77ZM32,293.79a20.54,20.54,0,1,1-20.54,20.54A20.57,20.57,0,0,1,32,293.79Zm139.84,41.08a20.54,20.54,0,1,1,20.54-20.54A20.57,20.57,0,0,1,171.86,334.87Z"/><path d="M78.27,356.64A5.74,5.74,0,0,0,84,350.9V320A18,18,0,0,1,101.94,302a5.74,5.74,0,0,0,0-11.48A29.44,29.44,0,0,0,72.53,320V350.9A5.74,5.74,0,0,0,78.27,356.64Z"/><path d="M125.61,368.12a5.74,5.74,0,0,0-5.74,5.74,17.93,17.93,0,1,1-35.86,0,5.74,5.74,0,0,0-11.48,0,29.41,29.41,0,0,0,58.82,0A5.74,5.74,0,0,0,125.61,368.12Z"/><path d="M84.55,211.7a5.74,5.74,0,0,0-7.3,8.86,38.81,38.81,0,0,0,49.39,0,5.74,5.74,0,1,0-7.3-8.86,27.54,27.54,0,0,1-11.66,5.63v-14a5.74,5.74,0,0,0-11.48,0v14A27.5,27.5,0,0,1,84.55,211.7Z"/><path d="M50.68,179a5.82,5.82,0,0,0,1.87.31A5.72,5.72,0,0,0,58,175.43a46.91,46.91,0,0,1,28.91-28.91,5.74,5.74,0,0,0-3.73-10.85,58.45,58.45,0,0,0-36,36A5.74,5.74,0,0,0,50.68,179Z"/></g></g></svg>