<svg xmlns="http://www.w3.org/2000/svg" viewBox="0 0 584.45 581.38"><defs><style>.cls-1{fill:#e0cdcd;}.cls-1,.cls-2,.cls-3{stroke:#000;stroke-linejoin:round;stroke-width:15px;}.cls-2{fill:#a3d3cc;}.cls-3{fill:#fff;}</style></defs><title>groupe--marshmallows</title><g id="Ebene_2" data-name="Ebene 2"><g id="Capa_1" data-name="Capa 1"><path class="cls-1" d="M400.17,271.18c1.66,4.73,2.82,9.72,5.07,14.15C431.79,337.7,468.41,381,520.11,410.07c10,5.63,17.2,11.51,28,15.62,6.48,2.47,11.2.85,6.56,5.89q-62.85,68.32-126,136.41c-3,3.25-8.5,5.88-12.85,5.89a82.61,82.61,0,0,1-24.94-3.43c-25.73-8.14-47.67-23.39-68.52-39.92-30-23.75-56.13-51.24-75.09-84.74-5.54-9.78-9.29-20.71-12.88-31.44-2.88-8.62-.42-16.6,5.92-23.45q70.81-76.5,141.42-153.17c8.24-9,18.61-10.46,28.85-7.2,13.49,4.3,27.3,9.17,39.19,16.63,45.73,28.71,84.81,64.67,114,110.56,6.61,10.4,12.21,21.38,13.06,34,.76,11.29-7.89,33.42-19.16,34.81-13.14,1.63-24.77-9.45-35.83-15.37-33.68-18-60.91-43.77-84.14-73.59-12.86-16.49-34.68-53.55-36.19-62.11C400.38,273.72,400.89,270.93,400.17,271.18Z"/><path class="cls-2" d="M46.72,309.15c4.9,1.08,9.75,2.72,14.7,3.15,58.5,5,114.59-3.26,166.56-31.86,10.06-5.54,18.84-8.55,28-15.59,5.51-4.21,6.62-9.07,8.46-2.47,16.62,59.62,33.28,119.23,49.52,179,1.17,4.29.51,10.32-1.77,14a82.79,82.79,0,0,1-16.06,19.38c-20.48,17.57-45,28.18-70,37.19-36,12.95-73.13,20.69-111.6,19.14-11.23-.45-22.49-3-33.5-5.63-8.84-2.09-14.33-8.38-16.81-17.39Q36.56,407.55,8.62,307.14c-3.28-11.73.91-21.33,9.08-28.32,10.77-9.2,22.18-18.37,34.79-24.54,48.5-23.72,99.67-38,154-38.59,12.32-.14,24.61.88,35.83,6.84,10,5.31,24.23,24.32,19.47,34.64-5.54,12-21.09,16.06-31.94,22.34-33.07,19.12-69.31,28.68-106.89,32.71-20.8,2.23-63.78,1.24-71.86-2C49,310.31,46.9,308.4,46.72,309.15Z"/><path class="cls-3" d="M212.64,50c3.29,3.78,6.21,8,9.94,11.28,44,38.87,94,65.59,152.8,73.53,11.38,1.54,20.23,4.35,31.81,4.18,6.94-.11,10.73-3.35,8.28,3-22.14,57.8-44.23,115.62-66.73,173.28-1.61,4.14-5.73,8.6-9.77,10.22a82.6,82.6,0,0,1-24.44,6c-26.92,1.93-52.94-4.14-78.42-11.8-36.62-11-71.08-26.91-101.07-51-8.76-7.05-16.27-15.82-23.56-24.47-5.87-7-6.53-15.27-3.16-24Q145.9,123,183.21,25.68c4.35-11.37,13.44-16.59,24.16-17.34,14.12-1,28.76-1.56,42.56,1C303,19.13,352.62,38.13,396.69,70c10,7.22,19.25,15.35,24.72,26.82,4.87,10.22,5,34-5,39.43-11.61,6.36-26.51.35-39-1.06-38-4.32-72.76-18.2-105.36-37.34-18-10.58-52-37-56.56-44.37C213.77,52.26,213.22,49.48,212.64,50Z"/></g></g></svg>