<svg xmlns="http://www.w3.org/2000/svg" viewBox="0 0 49.92 34.39"><defs><style>.cls-1{fill:#f7c563;}.cls-2{fill:#140606;}</style></defs><title>icon--funfact</title><g id="Ebene_2" data-name="Ebene 2"><g id="Ebene_1-2" data-name="Ebene 1"><path class="cls-1" d="M31.43,33.11l-13.22,0h0l-.11,1c-.41-.09-1-3.74-.89-4.2.43-2.65-.85-4.79-2.32-6.92a16.3,16.3,0,0,1-3-6.71,12.63,12.63,0,0,1,2.37-9.57,13.44,13.44,0,0,1,9-5.33,12,12,0,0,1,1.69-.12A13.2,13.2,0,0,1,37.8,12.36a13.65,13.65,0,0,1-2.34,9.71,37.72,37.72,0,0,0-2.73,5.33,4.56,4.56,0,0,0-.15,2v.15c0,.61.09,1.43-.92,1.59C31.59,31.1,31.51,33.11,31.43,33.11Z"/><path class="cls-2" d="M42.67,16.14a1.51,1.51,0,0,1-1.21-.41,1,1,0,0,1-.2-.82,1.63,1.63,0,0,1,1.33-1.07c1,0,2-.06,3-.06s1.94,0,2.91,0a1.91,1.91,0,0,1,.93.37,3.14,3.14,0,0,0,.31.18l.2.1v1.1l-.23.09c-.11,0-.21.1-.32.15a2,2,0,0,1-.92.3q-1.34,0-2.67,0Z"/><path class="cls-2" d="M31.63,31.1a1.1,1.1,0,0,1-.82-.34,1.32,1.32,0,0,1-.34-1c0-.27,0-.54,0-.81a8.93,8.93,0,0,1,.45-3.1,27.79,27.79,0,0,1,2.88-5.3A10.78,10.78,0,0,0,35,10.35a10.63,10.63,0,0,0-7.73-6.53A10.78,10.78,0,0,0,25,3.56c-5.62,0-10.49,4.56-10.63,10a11.56,11.56,0,0,0,2.24,7.42,15.32,15.32,0,0,1,3.19,7,7.09,7.09,0,0,1-.2,2.39c-.09.43-.77.76-1.16.76h0l-.11,0a1.32,1.32,0,0,1-.89-1.2c.43-2.65-.85-4.78-2.32-6.92a16.2,16.2,0,0,1-3-6.7,12.69,12.69,0,0,1,2.37-9.58,13.39,13.39,0,0,1,9-5.32,11.8,11.8,0,0,1,1.69-.12A13.19,13.19,0,0,1,38,12.35a13.69,13.69,0,0,1-2.33,9.71,37.81,37.81,0,0,0-2.74,5.33,4.57,4.57,0,0,0-.15,1.95v.16c0,.6.09,1.42-.92,1.58A1,1,0,0,1,31.63,31.1Z"/><path class="cls-2" d="M23.33,34.38H19.54a2.77,2.77,0,0,1-2.05-.71,2.76,2.76,0,0,1-.67-2.05A2.42,2.42,0,0,1,19.52,29H30.23a2.39,2.39,0,0,1,2.6,2.65,2.82,2.82,0,0,1-.66,2.08,2.62,2.62,0,0,1-1.92.7H23.33Zm-3.57-3.09a1.11,1.11,0,0,0-.51.07.53.53,0,0,0-.06.31c0,.35,0,.41.55.41H29.89c.56,0,.61-.06.61-.41a.47.47,0,0,0-.07-.31c-.07-.07-.35-.07-.54-.07H19.79l0-.37Z"/><path class="cls-2" d="M16.76,15.44l-.3,0c-.42-.08-.65-.52-.88-.95a3.33,3.33,0,0,0-.25-.42l-.08-.11,0-.14A9.55,9.55,0,0,1,23.53,5.3l.15,0a2.58,2.58,0,0,1,.38,0,1,1,0,0,1,.4.08,4.31,4.31,0,0,1,.76.54l.28.21.31.24-.27.3a2.88,2.88,0,0,0-.22.27,2,2,0,0,1-.75.68,3,3,0,0,1-1,.17,4.2,4.2,0,0,0-.62.08,6.75,6.75,0,0,0-5.17,6V14C17.75,14.55,17.68,15.44,16.76,15.44Z"/><path class="cls-2" d="M5.32,29.78c-.14,0-.28,0-.42,0l-.37,0-.42-.46a3.94,3.94,0,0,0,.08-.42,1.61,1.61,0,0,1,.44-1.08c1.91-1.5,3.9-2.93,5.59-4.13a1.68,1.68,0,0,1,.95-.25,2.34,2.34,0,0,1,.38,0c.29,0,.45.3.6.54l.17.25.18.23-.19.23-.22.29a2.49,2.49,0,0,1-.53.59l-.41.31C9.49,27.11,7.78,28.39,6,29.59A1.24,1.24,0,0,1,5.32,29.78Z"/><path class="cls-2" d="M10.87,6.5a1.18,1.18,0,0,1-.68-.23C8.29,4.94,6.39,3.52,4.35,2A1.23,1.23,0,0,1,4,1.14,1,1,0,0,1,4.21.42,1.67,1.67,0,0,1,5.27,0a.75.75,0,0,1,.45.12c1.92,1.34,3.79,2.74,5.85,4.29a1.11,1.11,0,0,1,.35.57l0,.08,0,.17A1.18,1.18,0,0,1,10.87,6.5Z"/><path class="cls-2" d="M44.9,29.93a1.84,1.84,0,0,1-1-.28q-1.82-1.29-3.6-2.63l-1.23-.91L38.9,26a1,1,0,0,1-.47-.45,6.07,6.07,0,0,1-.23-.91l-.06-.34.32-.44a2.53,2.53,0,0,0,.36-.07,3.09,3.09,0,0,1,.6-.08.89.89,0,0,1,.47.12c.86.54,1.68,1.16,2.48,1.75l1.18.87c.58.43,1.16.85,1.71,1.3a3,3,0,0,1,.52.6c.06.09.13.19.21.29l.18.22-.18.23a2.4,2.4,0,0,0-.18.26c-.16.24-.32.5-.61.54Z"/><path class="cls-2" d="M0,14.71a3.76,3.76,0,0,0,.29-.28,1.49,1.49,0,0,1,1-.59c1,0,2-.06,3.05-.06s2.1,0,3.15.06a1.52,1.52,0,0,1,.93.62,3.63,3.63,0,0,0,.27.28l0,.57a3.31,3.31,0,0,0-.3.25,1.87,1.87,0,0,1-.94.54,12.23,12.23,0,0,1-1.3.06l-.84,0H2.64c-.55,0-1,0-1.4-.06a1.64,1.64,0,0,1-.94-.56A2.26,2.26,0,0,0,0,15.28"/><path class="cls-2" d="M39,6.18l-.14-.1a1.12,1.12,0,0,1-.55-.62,1.41,1.41,0,0,1,.33-1.3c1.91-1.47,3.71-2.79,5.5-4A.77.77,0,0,1,44.64,0a1.38,1.38,0,0,1,1,.39,1.26,1.26,0,0,1,.19.89.9.9,0,0,1-.28.61C44,3.1,42.36,4.29,40.79,5.44l-.87.64a.92.92,0,0,1-.36.13l-.2,0-.19,0Z"/></g></g></svg>