<svg xmlns="http://www.w3.org/2000/svg" viewBox="0 0 29.24 30.37"><defs><style>.cls-1{fill:#f7c563;}</style></defs><title>icon--Ingredients</title><g id="Ebene_2" data-name="Ebene 2"><g id="Ebene_1-2" data-name="Ebene 1"><polygon class="cls-1" points="16.43 4.92 18.38 10.01 24.78 12.83 28.24 5.46 18.49 1.02 16.43 4.92"/><polygon class="cls-1" points="1.15 19.77 2.12 23.34 6.35 28.11 13.5 28.87 18.92 24.75 20.01 19.44 1.15 19.77"/><path d="M16,30.36H3.76c-.78,0-1-.38-1.1-.67A1,1,0,0,1,3,28.47a2.18,2.18,0,0,1,.51-.22l.3-.11.48-.2L4,27.56l-.61-.66c-.43-.47-.88-.94-1.27-1.44A10,10,0,0,1,0,19.34a1.21,1.21,0,0,1,.27-.9,1.62,1.62,0,0,1,1.12-.33H12.83l.08-.25c.14-.41.27-.83.39-1.24a20.82,20.82,0,0,1,.91-2.56A33.31,33.31,0,0,1,16,10.87l.5-.81a2.73,2.73,0,0,0-.29-2.8,3.07,3.07,0,0,1-.61-3c.43-1,.86-2,1.31-3A1.93,1.93,0,0,1,18.67,0a2.25,2.25,0,0,1,.89.2c1.2.51,2.4,1,3.59,1.57,1.59.7,3.18,1.4,4.78,2.08a2.75,2.75,0,0,1,1.31,1.4v.8l-2.72,6.24a2,2,0,0,1-1.81,1.43,2.92,2.92,0,0,1-1.18-.28l-3.86-1.68-2-.88-.14.34a19.93,19.93,0,0,0-1.35,6.5l0,.39h3.56l.51,0c.85.06,1.16.39,1.15,1.23A10.39,10.39,0,0,1,18,26.93c-.12.12-.25.23-.4.36l-.7.62L18,28.3a1,1,0,0,1,.79,1.19,1.08,1.08,0,0,1-1.07.87H16ZM2.28,20.73a8.52,8.52,0,0,0,8.37,7H11c4-.16,7.68-3.28,8.11-7l.05-.4H2.2ZM18.41,3.13c-.26.58-.5,1.11-.71,1.66a.9.9,0,0,0,.26,1c.55.33.64.8.74,1.6S19,9,19.57,9.31a35.72,35.72,0,0,0,3.33,1.54l1.28.55.34.15L27,5.79,18.83,2.18Z"/></g></g></svg>