<svg xmlns="http://www.w3.org/2000/svg" viewBox="0 0 358.69 359.93"><defs><style>.cls-1{fill:#e0cdcd;stroke:#000;stroke-linejoin:round;stroke-width:15px;}</style></defs><title>marshmallows</title><g id="Ebene_2" data-name="Ebene 2"><g id="Capa_1" data-name="Capa 1"><path class="cls-1" d="M174.41,49.72c1.67,4.74,2.82,9.73,5.07,14.16,26.55,52.37,63.17,95.66,114.88,124.74,10,5.63,17.19,11.5,28,15.62,6.49,2.47,11.2.85,6.57,5.89q-62.86,68.33-126,136.41c-3,3.25-8.51,5.88-12.85,5.89A82.93,82.93,0,0,1,165.19,349c-25.73-8.15-47.68-23.39-68.52-39.92-30-23.75-56.13-51.24-75.1-84.74C16,214.56,12.29,203.63,8.7,192.9c-2.89-8.62-.43-16.6,5.92-23.45Q85.42,93,156,16.28c8.24-9,18.61-10.46,28.86-7.2,13.49,4.3,27.3,9.16,39.19,16.63,45.72,28.71,84.8,64.67,114,110.56,6.61,10.4,12.22,21.37,13.07,34,.75,11.29-7.9,33.42-19.17,34.81-13.14,1.62-24.77-9.46-35.82-15.37-33.69-18-60.91-43.77-84.15-73.59-12.85-16.5-34.67-53.55-36.18-62.11C174.62,52.27,175.14,49.48,174.41,49.72Z"/></g></g></svg>