<svg xmlns="http://www.w3.org/2000/svg" viewBox="0 0 1536 512"><title>sprite--social</title><g id="Ebene_2" data-name="Ebene 2"><g id="Ebene_1-2" data-name="Ebene 1"><g id="split--twitetr"><path d="M512,102.39c-32.21,1.49-31.5,1.37-35.14,1.67l19.07-54.47s-59.54,21.9-74.63,25.82c-39.64-35.63-98.57-37.2-140.69-11.31-34.5,21.2-53,57.62-46.84,100.19C166.64,155,110.07,123.15,65.41,69.5l-14.12-17L40.73,71.92C27.39,96.41,23,124.41,28.25,150.77a113.74,113.74,0,0,0,11,30.78l-12.12-4.69L25.68,197.1c-1.46,20.57,5.39,44.58,18.32,64.22a113.57,113.57,0,0,0,14.27,17.59L52,278l7.64,23.2c10,30.48,30.91,54.07,58,67.17-27,11.48-48.88,18.8-84.78,30.61L0,409.72l30.34,16.59c11.56,6.32,52.43,27.44,92.82,33.78C212.92,474.17,314,462.7,382,401.43c57.31-51.62,76.11-125,72.2-201.44-.59-11.56,2.58-22.6,8.93-31.08C475.86,152,511.92,102.51,512,102.39ZM439.17,151c-10.54,14.06-15.81,32-14.87,50.57,3.94,77.07-17,136.84-62.33,177.63-52.92,47.66-138.27,66.37-234.17,51.33-17.37-2.73-35.32-8.82-50.17-14.91C107.73,405.21,131,396,168.5,378.22l52.4-24.81-57.85-3.7c-27.71-1.77-50.78-15.2-65-37a103.08,103.08,0,0,0,22-3.67l55.17-15.37L119.64,280c-27-6.62-42.44-22.8-50.61-35.2a85,85,0,0,1-11-24.21c5.58,1.5,12.08,2.57,22.57,3.6l51.5,5.1L91.33,197.5c-29.4-22.93-41.18-57.38-32.54-90.5,91.75,95.17,199.47,88,210.32,90.53-2.39-23.18-2.45-23.24-3.08-25.44-13.89-49.09,16.55-74,30.27-82.46C325,72,370.49,69.36,402,98.39A26.86,26.86,0,0,0,426.64,105a207.24,207.24,0,0,0,20.3-6.18l-12.94,37h16.52Z"/></g><g id="splite--instagram"><path d="M587,512H949a75.08,75.08,0,0,0,75-75V75A75.08,75.08,0,0,0,949,0H587a75.08,75.08,0,0,0-75,75V437A75.08,75.08,0,0,0,587,512ZM542,75a45.05,45.05,0,0,1,45-45H949a45.05,45.05,0,0,1,45,45V437a45.05,45.05,0,0,1-45,45H587a45.05,45.05,0,0,1-45-45Z"/><path d="M768,391c74.44,0,135-60.56,135-135S842.44,121,768,121,633,181.56,633,256,693.56,391,768,391Zm0-240A105,105,0,1,1,663,256,105.12,105.12,0,0,1,768,151Z"/><path d="M918,151a45,45,0,1,0-45-45A45.05,45.05,0,0,0,918,151Zm0-60a15,15,0,1,1-15,15A15,15,0,0,1,918,91Z"/></g><path id="splite--facebook" d="M1099,512h167V330h-60V270h60V195a75.08,75.08,0,0,1,75-75h75v60h-60a30,30,0,0,0-30,30v60h87.29l-10,60H1326V512h135a75.08,75.08,0,0,0,75-75V75a75.08,75.08,0,0,0-75-75H1099a75.08,75.08,0,0,0-75,75V437A75.08,75.08,0,0,0,1099,512ZM1054,75a45.05,45.05,0,0,1,45-45h362a45.05,45.05,0,0,1,45,45V437a45.05,45.05,0,0,1-45,45H1356V360h72.71l20-120H1356V210h90V90H1341a105.12,105.12,0,0,0-105,105v45h-60V360h60V482H1099a45.05,45.05,0,0,1-45-45Z"/></g></g></svg>