<?xml version="1.0" encoding="utf-8"?>
<!-- Generator: Adobe Illustrator 23.0.1, SVG Export Plug-In . SVG Version: 6.00 Build 0)  -->
<svg version="1.1" id="Ebene_1" xmlns="http://www.w3.org/2000/svg" xmlns:xlink="http://www.w3.org/1999/xlink" x="0px" y="0px"
	 viewBox="0 0 1536 512" style="enable-background:new 0 0 1536 512;" xml:space="preserve">
<g id="splite--instagram">
	<path d="M587,512.6h362c41.4,0,75-33.6,75-75v-362c0-41.4-33.6-75-75-75H587c-41.4,0-75,33.6-75,75v362
		C512,478.9,545.6,512.6,587,512.6z M542,75.6c0-24.8,20.2-45,45-45h362c24.8,0,45,20.2,45,45v362c0,24.8-20.2,45-45,45H587
		c-24.8,0-45-20.2-45-45V75.6z"/>
	<path d="M768,391.6c74.4,0,135-60.6,135-135s-60.6-135-135-135s-135,60.6-135,135S693.6,391.6,768,391.6z M768,151.6
		c57.9,0,105,47.1,105,105s-47.1,105-105,105s-105-47.1-105-105S710.1,151.6,768,151.6z"/>
	<path d="M918,151.6c24.8,0,45-20.2,45-45s-20.2-45-45-45s-45,20.2-45,45S893.2,151.6,918,151.6z M918,91.6c8.3,0,15,6.7,15,15
		s-6.7,15-15,15s-15-6.7-15-15S909.7,91.6,918,91.6z"/>
</g>
<path id="splite--facebook" d="M1099,512.6h167v-182h-60v-60h60v-75c0-41.4,33.6-75,75-75h75v60h-60c-16.5,0-30,13.5-30,30v60h87.3
	l-10,60H1326v182h135c41.4,0,75-33.6,75-75v-362c0-41.4-33.6-75-75-75h-362c-41.4,0-75,33.6-75,75v362
	C1024,478.9,1057.6,512.6,1099,512.6z M1054,75.6c0-24.8,20.2-45,45-45h362c24.8,0,45,20.2,45,45v362c0,24.8-20.2,45-45,45h-105
	v-122h72.7l20-120H1356v-30h90v-120h-105c-57.9,0-105,47.1-105,105v45h-60v120h60v122h-137c-24.8,0-45-20.2-45-45V75.6z"/>
<g>
	<g id="split--twitetr_1_">
		<path d="M451.9,148.8c-25.3,1.2-24.8,1.1-27.6,1.3l15-42.8c0,0-46.8,17.2-58.7,20.3c-31.2-28-77.5-29.2-110.6-8.9
			c-27.1,16.7-41.7,45.3-36.8,78.8c-52.8-7.3-97.2-32.3-132.4-74.5l-11.1-13.3l-8.3,15.2c-10.5,19.3-14,41.3-9.8,62
			c1.7,8.5,4.6,16.6,8.6,24.2l-9.5-3.7l-1.1,15.9c-1.1,16.2,4.2,35,14.4,50.5c2.9,4.3,6.5,9.1,11.2,13.8l-4.9-0.8l6,18.2
			c7.9,24,24.3,42.5,45.6,52.8c-21.3,9-38.4,14.8-66.6,24.1l-25.8,8.5l23.8,13c9.1,5,41.2,21.6,73,26.6
			c70.6,11.1,150,2.1,203.5-46.1c45.1-40.6,59.8-98.3,56.8-158.3c-0.5-9.1,2-17.8,7-24.4C423.5,187.8,451.8,148.9,451.9,148.8z
			 M394.6,187c-8.3,11.1-12.4,25.2-11.7,39.8c3.1,60.6-13.4,107.6-49,139.6c-41.6,37.5-108.7,52.2-184.1,40.3
			c-13.7-2.1-27.8-6.9-39.4-11.7c23.7-8.1,41.9-15.4,71.4-29.4l41.2-19.5l-45.5-2.9c-21.8-1.4-39.9-12-51.1-29.1
			c5.9-0.3,11.6-1.3,17.3-2.9l43.4-12.1l-43.7-10.7c-21.3-5.2-33.4-17.9-39.8-27.7c-4.2-6.4-7-13-8.6-19c4.4,1.2,9.5,2,17.7,2.8
			l40.5,4l-32.1-25c-23.1-18-32.4-45.1-25.6-71.1c72.1,74.8,156.8,69.2,165.3,71.2c-1.9-18.2-1.9-18.3-2.4-20
			c-10.9-38.6,13-58.2,23.8-64.8c22.5-13.9,58.3-15.9,83.1,6.9c5.4,4.9,12.6,6.9,19.4,5.2c6.1-1.5,11.1-3.1,16-4.9l-10.2,29l13,0
			C401.1,178.4,398.2,182.3,394.6,187z"/>
	</g>
	<path id="splite--facebook_1_" d="M302,512h135c41.4,0,75-33.6,75-75V75c0-41.4-33.6-75-75-75H75C33.6,0,0,33.6,0,75v362
		c0,41.4,33.6,75,75,75h167 M212,482H75c-24.8,0-45-20.2-45-45V75c0-24.8,20.2-45,45-45h362c24.8,0,45,20.2,45,45v362
		c0,24.8-20.2,45-45,45H332H212z"/>
</g>
</svg>
